<?xml version="1.0" standalone="no"?>
<!DOCTYPE svg PUBLIC "-//W3C//DTD SVG 20010904//EN"
 "http://www.w3.org/TR/2001/REC-SVG-20010904/DTD/svg10.dtd">
<svg version="1.0" xmlns="http://www.w3.org/2000/svg"
 width="2572.000000pt" height="2572.000000pt" viewBox="0 0 2572.000000 2572.000000"
 preserveAspectRatio="xMidYMid meet">

<g transform="translate(0.000000,2572.000000) scale(0.100000,-0.100000)"
fill="#000000" stroke="none">
<path d="M12846 20385 c19 -29 29 -27 19 4 -3 12 -13 21 -21 21 -12 0 -12 -4
2 -25z"/>
<path d="M12900 20386 c0 -2 8 -10 18 -17 15 -13 16 -12 3 4 -13 16 -21 21
-21 13z"/>
<path d="M13115 20335 c17 -8 53 -32 80 -54 28 -23 62 -46 78 -52 32 -13 33
-19 7 -48 l-19 -23 -71 38 c-76 42 -147 104 -117 104 9 0 17 6 17 14 0 11 -9
13 -35 9 -23 -4 -35 -2 -35 6 0 6 -7 11 -15 11 -8 0 -15 -5 -15 -11 0 -8 -5
-7 -16 2 -13 11 -19 8 -39 -17 l-23 -29 -22 23 c-28 29 -37 28 -45 -7 -8 -38
-52 -49 -75 -20 -8 10 -24 21 -35 23 -11 3 -37 11 -57 20 -59 25 -128 19 -128
-10 0 -8 -5 -14 -11 -14 -14 0 -4 -77 13 -97 7 -9 7 -13 0 -13 -5 0 -8 -10 -4
-22 3 -14 1 -19 -6 -14 -8 5 -10 2 -6 -8 3 -9 1 -16 -5 -16 -6 0 -17 -12 -23
-27 -9 -22 -12 -24 -15 -10 -5 19 -14 22 -29 8 -5 -4 -21 -11 -36 -15 -20 -5
-28 -2 -32 11 -4 14 -4 14 -3 -2 2 -29 -11 -45 -31 -38 -13 4 -11 0 6 -16 26
-25 29 -46 6 -37 -9 3 -23 6 -32 6 -9 0 -32 22 -50 49 -49 72 -86 95 -152 97
-87 1 -135 19 -150 54 -10 25 -15 28 -27 18 -13 -10 -19 -8 -34 11 -11 13 -19
18 -19 12 0 -22 -28 -22 -69 -3 -44 22 -49 19 -26 -14 8 -12 11 -24 8 -28 -9
-9 -35 -7 -29 2 2 4 -4 8 -14 8 -10 0 -16 -6 -13 -13 3 -7 0 -13 -7 -13 -8 0
-10 8 -7 22 4 15 -2 28 -21 45 -15 13 -30 23 -34 23 -15 0 -8 -24 14 -47 22
-23 20 -41 -4 -27 -7 4 -19 9 -28 10 -8 1 -19 3 -25 5 -16 5 -59 -12 -71 -29
-13 -18 -54 -13 -134 16 -30 11 -82 23 -115 26 -33 3 -52 3 -42 0 26 -8 20
-21 -13 -27 -16 -4 -50 -16 -75 -27 -50 -23 -105 -36 -105 -26 0 4 5 17 11 29
11 19 10 19 -19 -4 -17 -13 -31 -30 -31 -36 -1 -7 -10 -18 -21 -25 -11 -7 -20
-19 -20 -26 0 -7 -7 -15 -16 -19 -8 -3 -19 -16 -24 -27 -5 -14 -23 -27 -50
-35 -27 -8 -44 -20 -47 -32 -3 -10 -10 -19 -16 -19 -7 0 -7 -4 1 -12 7 -7 12
-22 12 -34 0 -24 -43 -39 -71 -23 -12 6 -23 1 -39 -16 -24 -25 -108 -55 -157
-55 -47 0 -74 -11 -71 -29 4 -24 -49 -17 -79 11 -23 21 -26 22 -106 10 -46 -7
-96 -12 -113 -12 -37 0 -137 -46 -129 -60 4 -6 16 -5 34 5 27 13 102 11 100
-4 -3 -30 -42 -68 -85 -84 -27 -10 -56 -20 -64 -24 -8 -3 -20 -5 -26 -4 -7 1
-14 -5 -18 -14 -3 -8 -14 -15 -24 -15 -18 0 -43 -23 -153 -141 -31 -33 -121
-79 -155 -79 -7 0 -24 -9 -36 -21 -13 -11 -49 -43 -80 -70 -50 -45 -56 -53
-45 -70 6 -10 20 -19 29 -19 18 0 22 -8 19 -47 -1 -12 6 -26 16 -32 15 -8 16
-13 6 -30 -7 -11 -10 -27 -7 -36 8 -20 -46 -78 -87 -96 -21 -8 -27 -15 -19
-24 12 -15 3 -25 -22 -25 -23 0 -78 -39 -78 -56 0 -7 -6 -14 -12 -17 -10 -3
-10 -8 2 -21 13 -16 12 -20 -5 -32 -20 -15 -20 -15 3 -54 12 -21 22 -46 22
-54 0 -9 6 -16 14 -16 11 0 12 -7 7 -27 -6 -24 -13 -28 -47 -30 -76 -3 -189
-25 -196 -38 -4 -7 -19 -16 -34 -19 -20 -5 -23 -10 -14 -20 8 -11 4 -21 -22
-45 -19 -18 -40 -30 -50 -27 -20 5 -53 -28 -44 -43 4 -6 2 -18 -3 -28 -12 -22
-24 -55 -25 -68 -1 -5 -9 -9 -19 -7 -11 2 -17 -4 -17 -18 0 -11 -4 -20 -9 -20
-5 0 -19 -16 -32 -34 -13 -19 -33 -39 -45 -45 -13 -6 -25 -26 -34 -58 -7 -26
-19 -59 -27 -72 -11 -16 -12 -26 -4 -34 7 -7 13 -5 18 9 4 10 17 30 30 44 l24
25 -11 -31 c-13 -36 -18 -144 -7 -137 4 2 7 10 7 17 0 23 44 56 68 49 15 -4
22 -1 22 10 0 12 19 27 36 27 13 0 1 -30 -15 -35 -11 -3 -26 -16 -35 -29 -8
-14 -27 -37 -40 -53 -43 -47 -46 -52 -46 -63 0 -9 -59 -133 -96 -202 -8 -14
-12 -33 -9 -40 3 -8 -3 -36 -15 -62 -11 -26 -20 -62 -20 -79 0 -18 -7 -43 -15
-57 -8 -14 -22 -41 -31 -60 -9 -19 -22 -42 -29 -50 -17 -21 -27 -80 -14 -80 7
0 8 -10 4 -27 -14 -49 -27 -186 -27 -265 1 -68 -2 -78 -19 -83 -12 -4 -19 -15
-19 -30 0 -18 4 -23 15 -19 17 7 21 -21 5 -31 -15 -10 -12 -35 5 -35 18 0 19
-6 5 -23 -52 -61 -58 -72 -48 -78 15 -10 2 -69 -20 -85 -10 -8 -12 -13 -4 -14
18 0 15 -20 -4 -20 -11 0 -14 -6 -8 -22 3 -13 10 -28 15 -34 5 -6 6 -19 3 -29
-6 -14 -3 -16 16 -10 22 7 23 5 16 -26 -5 -26 -4 -31 6 -21 7 7 16 12 20 12
13 0 9 -27 -7 -40 -17 -14 -48 -73 -34 -65 15 10 10 -41 -5 -54 -22 -18 -26
-60 -7 -71 13 -7 14 -12 4 -29 -20 -33 -15 -46 9 -25 20 18 21 18 15 0 -4 -10
-10 -39 -13 -65 -2 -25 -12 -66 -21 -90 -13 -33 -14 -46 -5 -49 7 -2 12 -13
12 -25 0 -18 2 -19 10 -7 14 21 13 -5 0 -30 -8 -16 -8 -18 5 -14 24 10 18 -21
-11 -55 -18 -22 -23 -35 -16 -44 11 -14 9 -83 -3 -111 -7 -16 -5 -18 8 -13 14
5 16 2 11 -18 -5 -20 -3 -24 10 -19 13 5 16 -2 16 -42 1 -48 1 -49 15 -23 8
15 25 29 37 32 20 5 21 4 7 -6 -8 -7 -21 -27 -27 -46 -10 -28 -10 -32 3 -21 7
6 16 21 18 33 3 17 5 16 6 -7 0 -16 -4 -46 -11 -68 -9 -32 -9 -41 1 -48 10 -6
11 -12 1 -29 -6 -12 -9 -30 -7 -39 4 -16 5 -16 6 1 0 9 6 17 11 17 6 0 10 9
10 20 0 11 4 20 9 20 16 0 20 -159 5 -196 -17 -39 -18 -54 -4 -54 6 0 10 9 10
20 0 26 8 25 30 -2 14 -18 15 -24 5 -33 -7 -5 -16 -30 -20 -55 -4 -33 -3 -41
4 -30 6 8 11 24 11 35 1 34 15 49 36 36 11 -6 15 -11 9 -11 -12 0 -10 -150 2
-159 4 -3 8 -16 9 -28 0 -13 1 -48 2 -78 1 -36 6 -54 14 -53 16 4 40 -80 35
-124 -4 -29 -2 -35 10 -31 9 4 13 14 9 28 -4 14 0 28 10 36 13 11 14 9 9 -13
-5 -18 -2 -27 9 -31 20 -8 20 -24 0 -44 -12 -13 -13 -18 -3 -24 8 -4 18 -4 25
1 13 12 24 3 24 -21 0 -10 9 -21 20 -24 28 -9 48 -59 66 -170 1 -5 2 -18 3
-28 0 -10 6 -15 11 -12 6 3 13 -1 16 -10 4 -9 13 -14 20 -11 9 3 14 -2 14 -13
0 -10 7 -31 15 -48 10 -20 17 -75 20 -164 3 -74 9 -150 14 -169 7 -33 8 -30
19 40 23 149 35 364 30 548 -4 145 -2 193 8 219 8 18 11 33 8 33 -4 0 0 8 7
18 12 15 12 16 -2 4 -9 -6 -37 -18 -63 -26 -47 -14 -58 -12 -115 21 -7 4 32
44 53 55 11 6 29 11 41 12 15 1 21 9 23 35 2 18 -1 38 -7 44 -5 5 -7 37 -4 77
4 45 2 69 -6 74 -16 10 -15 137 1 133 8 -1 12 17 13 60 0 34 3 64 7 68 3 4 4
52 2 107 -3 67 -1 98 6 93 5 -3 10 -16 11 -28 1 -12 5 -2 10 23 5 25 7 51 4
58 -2 7 2 15 10 18 8 4 15 17 15 30 0 24 56 120 84 143 21 18 21 42 0 34 -14
-5 -16 -2 -10 23 7 25 14 35 36 46 13 7 39 70 34 83 -3 8 3 20 15 27 12 7 21
18 21 25 0 7 7 13 15 13 8 0 15 -5 15 -11 0 -8 5 -7 15 1 9 8 13 21 9 32 -4
13 4 29 25 50 31 32 32 32 60 15 38 -22 123 -22 204 0 34 9 64 20 67 23 3 4
26 12 53 20 41 11 45 14 30 25 -15 12 -15 14 5 26 12 8 22 19 22 26 0 7 6 13
13 14 6 1 30 3 52 6 22 2 55 5 74 6 19 1 36 7 38 12 2 7 -13 9 -38 7 -53 -5
-71 11 -41 38 11 11 28 17 36 14 9 -4 16 -1 16 6 0 7 7 10 16 6 17 -7 64 15
84 39 12 14 8 15 -31 13 -33 -2 -44 1 -47 13 -2 10 6 19 20 24 19 6 20 8 6 12
-26 7 0 43 32 44 24 0 24 1 4 9 -12 5 -25 13 -29 19 -3 6 -14 11 -24 11 -33 0
-51 33 -51 93 0 31 5 59 10 62 6 3 10 17 10 30 0 19 7 26 28 30 15 4 35 11 45
16 22 12 21 14 34 -31 l11 -35 1 39 c1 37 2 38 31 34 18 -3 31 0 34 9 3 7 13
13 23 13 15 0 16 -2 3 -10 -11 -8 -8 -9 12 -4 23 5 28 2 34 -20 3 -14 11 -23
17 -19 5 3 7 1 3 -5 -9 -14 16 -152 27 -152 5 0 7 12 3 28 -3 15 -9 49 -13 76
-5 43 -4 49 10 43 11 -4 17 -1 17 8 0 17 36 20 45 4 4 -6 14 -8 22 -5 8 3 26
0 41 -8 15 -7 33 -11 41 -8 21 7 142 -60 154 -85 7 -16 6 -27 -3 -38 -11 -13
-10 -14 4 -9 10 4 26 -3 43 -20 14 -14 34 -26 44 -26 10 0 21 -4 24 -10 6 -10
112 -61 153 -74 12 -4 22 -12 22 -17 0 -5 11 -7 24 -3 18 4 26 1 30 -14 4 -11
14 -26 23 -34 15 -11 16 -11 10 5 -5 13 0 21 21 29 37 16 142 20 158 7 10 -8
18 -7 29 5 21 20 20 20 80 -9 56 -28 80 -32 72 -12 -4 10 13 14 73 14 88 1
107 7 89 29 -9 11 -8 14 4 14 8 0 17 5 19 12 3 8 12 4 26 -10 12 -12 24 -17
27 -12 4 6 1 10 -6 10 -7 0 -9 3 -5 7 4 4 32 8 63 9 37 1 51 -1 42 -7 -12 -8
-11 -12 5 -24 29 -22 49 -19 41 5 -4 14 -2 20 9 20 10 0 13 6 9 18 -6 14 -4
15 9 5 8 -7 17 -10 20 -7 3 3 15 -6 26 -20 20 -26 42 -34 42 -16 0 20 49 9
115 -25 37 -20 70 -33 74 -30 3 3 -1 10 -9 15 -20 13 -5 13 20 0 11 -5 29 -15
40 -20 16 -8 20 -7 20 5 0 8 -6 15 -12 15 -10 0 -9 3 0 9 12 7 126 -39 142
-58 3 -4 25 -6 50 -6 25 0 50 -4 57 -8 7 -5 25 -10 40 -12 15 -2 41 -7 57 -11
16 -4 31 -2 35 4 3 5 24 11 46 13 22 1 45 7 52 12 7 5 27 4 49 -2 44 -12 51
-9 29 12 -24 24 -19 38 10 27 16 -6 25 -6 25 0 0 5 14 7 33 3 28 -6 31 -5 19
9 -11 14 -10 18 7 30 12 8 18 18 14 21 -3 4 8 7 25 7 18 0 32 5 32 10 0 18 53
10 77 -12 23 -21 28 -17 24 20 -3 18 19 15 26 -4 5 -15 7 -15 15 0 5 9 13 14
17 11 18 -11 105 -8 109 3 6 18 41 14 72 -8 15 -11 37 -21 49 -23 11 -2 24 -6
27 -10 11 -10 44 -8 44 3 0 5 -7 13 -16 18 -14 8 -14 10 2 16 11 4 20 2 22 -3
2 -6 8 -11 14 -11 24 0 158 -67 216 -107 35 -24 66 -42 69 -39 6 6 -25 33 -91
79 l-41 29 35 -6 c19 -3 67 -10 105 -15 75 -10 156 -34 193 -57 27 -18 29 -4
3 20 -10 10 -21 26 -24 37 -8 30 41 26 53 -5 5 -13 17 -30 28 -37 11 -8 21
-18 22 -24 2 -5 17 -19 34 -30 l31 -20 -33 -3 c-19 -2 -44 4 -58 13 -30 19
-31 7 -3 -30 28 -34 15 -45 -55 -45 -46 0 -48 -1 -30 -15 18 -13 17 -14 -18
-15 -20 0 -38 -5 -40 -11 -3 -8 -16 -6 -42 5 -44 18 -70 21 -61 6 4 -6 -7 -10
-26 -10 l-32 0 23 -20 23 -20 -40 0 c-23 0 -52 -6 -65 -13 -26 -13 -27 -37 -2
-37 8 0 14 -4 14 -10 0 -15 -46 -23 -93 -17 -35 5 -38 5 -17 -4 25 -10 24 -11
-23 -35 -51 -25 -61 -29 -54 -16 3 4 -11 6 -31 5 -21 -1 -45 -2 -54 -2 -29 -1
-20 -21 10 -21 l27 -1 -28 -15 c-36 -20 -26 -35 16 -22 17 5 39 12 48 15 9 2
20 -1 24 -7 5 -9 1 -10 -14 -5 -12 4 -21 2 -21 -4 0 -6 -8 -11 -17 -11 -10 0
-29 -9 -43 -20 l-25 -21 28 7 c15 3 27 3 27 0 0 -3 -20 -27 -45 -53 -45 -46
-59 -67 -28 -42 19 16 19 17 -11 -53 -21 -49 -15 -48 18 3 15 22 30 38 33 35
3 -3 0 -12 -6 -20 -7 -8 -11 -20 -9 -28 4 -17 -42 -128 -53 -128 -5 0 -9 9 -9
20 0 11 -4 20 -10 20 -5 0 -10 -21 -10 -47 0 -27 -7 -61 -15 -76 -8 -17 -12
-40 -8 -57 3 -19 1 -30 -6 -30 -6 0 -11 -6 -11 -13 0 -8 -9 -22 -20 -33 -12
-10 -28 -27 -38 -36 -9 -10 -22 -18 -29 -18 -7 0 -10 -6 -7 -13 2 -7 -6 -22
-18 -33 -14 -12 -18 -13 -10 -3 11 14 9 16 -15 12 -69 -11 -74 -13 -71 -36 2
-12 10 -23 18 -23 8 -1 20 -2 26 -3 26 -2 22 -48 -11 -131 -18 -47 -37 -102
-40 -122 -7 -37 -35 -55 -35 -23 0 8 -4 15 -10 15 -5 0 -10 -5 -10 -11 0 -6
-7 -9 -15 -5 -8 3 -18 0 -22 -7 -6 -9 -34 -11 -113 -6 -166 11 -282 10 -275
-1 3 -5 15 -10 26 -10 10 0 19 -4 19 -10 0 -10 -14 -12 -82 -14 -73 -2 -49
-16 28 -16 79 0 176 -12 247 -31 44 -12 49 -36 10 -45 -16 -4 -33 -11 -39 -16
-7 -5 -25 -11 -40 -13 -50 -8 -104 -29 -101 -40 2 -5 29 -11 61 -11 37 -1 63
-7 75 -18 9 -9 21 -16 25 -16 23 0 31 -33 33 -143 1 -68 7 -125 13 -132 8 -10
8 -15 0 -20 -8 -5 -7 -12 4 -24 9 -10 14 -20 11 -23 -3 -3 8 -11 25 -18 36
-15 80 -74 80 -107 0 -12 4 -24 9 -27 16 -10 11 -76 -6 -76 -10 0 -13 -6 -9
-16 4 -12 0 -15 -17 -12 -17 2 -21 8 -19 30 4 30 -34 89 -52 82 -6 -2 -17 -14
-24 -25 -11 -17 -11 -24 -1 -36 11 -12 10 -17 -4 -24 -21 -12 -22 -42 -3 -61
18 -18 30 -74 19 -90 -7 -12 -12 -98 -5 -98 2 0 10 7 19 15 20 20 43 3 43 -31
0 -22 -14 -30 -42 -25 -15 2 -8 -30 7 -35 8 -4 15 -12 15 -20 0 -7 7 -17 16
-22 9 -5 18 -22 19 -38 2 -24 -5 -35 -39 -59 l-41 -30 27 -3 c20 -2 30 -10 34
-28 3 -13 24 -38 45 -55 41 -32 49 -49 25 -49 -8 0 -18 9 -21 20 -8 24 -18 25
-35 5 -9 -10 -9 -15 -1 -15 6 0 11 -7 11 -16 0 -11 -5 -14 -16 -10 -22 9 -64
-20 -64 -43 0 -35 12 -52 51 -71 45 -23 56 -39 38 -52 -10 -7 -7 -7 9 -3 12 4
22 2 22 -4 0 -5 3 -16 6 -24 3 -8 -1 -21 -8 -28 -7 -8 -13 -36 -13 -64 0 -44
-3 -50 -22 -53 -13 -2 -23 -8 -23 -13 0 -6 -10 -31 -21 -56 -12 -26 -22 -60
-23 -76 -1 -16 -9 -35 -17 -41 -8 -6 -21 -25 -27 -42 -9 -20 -23 -33 -45 -40
-20 -5 -37 -20 -45 -36 -7 -16 -19 -28 -25 -28 -7 0 -29 -14 -50 -31 -21 -17
-49 -34 -64 -38 -26 -7 -26 -7 18 -30 24 -13 61 -37 82 -54 44 -35 102 -49
168 -40 35 4 53 1 75 -13 15 -11 31 -18 34 -18 16 4 48 -20 43 -32 -3 -8 0
-14 6 -14 6 0 10 6 9 13 -4 17 42 10 65 -11 11 -9 28 -16 39 -14 15 3 19 -1
14 -15 -6 -21 38 -60 49 -43 3 6 -4 14 -17 19 -21 8 -21 10 -4 16 10 5 21 3
25 -2 3 -6 12 -12 20 -14 11 -4 11 -8 -2 -21 -15 -14 -15 -17 -1 -28 8 -7 17
-10 21 -6 3 3 1 6 -5 6 -7 0 -12 5 -12 11 0 6 14 9 33 8 18 -2 38 0 44 4 6 4
15 2 18 -4 4 -5 13 -8 21 -5 17 6 17 1 4 -25 -8 -15 -7 -21 4 -25 8 -3 17 -15
20 -27 4 -15 8 -18 14 -10 6 10 13 10 32 0 48 -25 63 -28 57 -13 -4 10 0 12
14 9 10 -3 19 -12 19 -21 0 -13 2 -13 13 2 12 16 14 17 27 1 12 -14 10 -17 -8
-22 -29 -7 -28 -11 11 -45 17 -15 25 -27 17 -26 -10 2 -14 -4 -13 -19 2 -13
-2 -23 -7 -23 -6 0 -15 10 -20 23 -5 12 -9 18 -9 13 -1 -5 -12 3 -26 18 -25
27 -41 32 -64 17 -12 -8 -12 -12 -2 -25 8 -9 19 -16 26 -16 15 0 45 -32 45
-48 0 -7 -9 -12 -20 -12 -11 0 -20 6 -20 14 0 19 -40 28 -46 11 -7 -18 -62
-37 -70 -24 -3 5 -14 7 -24 4 -10 -3 -21 -1 -25 5 -4 6 -12 7 -23 1 -10 -5
-29 -7 -43 -4 -16 3 -30 -1 -38 -11 -8 -9 -24 -16 -36 -16 -13 0 -25 -6 -28
-12 -3 -10 -31 -12 -105 -10 -124 4 -176 -9 -194 -45 -17 -35 -54 -44 -96 -24
-31 14 -35 14 -47 -2 -11 -15 -13 -16 -19 -2 -7 20 -36 19 -36 -1 0 -13 -3
-14 -14 -5 -8 7 -46 15 -85 18 -62 5 -71 4 -71 -11 0 -9 -8 -16 -21 -16 -11 0
-18 4 -14 9 3 5 1 12 -5 16 -5 3 -10 2 -10 -2 0 -5 -15 -7 -33 -5 -27 3 -35
-1 -47 -23 -13 -24 -14 -25 -24 -7 -9 15 -16 18 -33 11 -13 -5 -23 -14 -23
-21 0 -9 -3 -9 -11 -1 -6 6 -18 9 -26 6 -12 -5 -12 -7 -1 -14 10 -7 11 -9 0
-9 -7 0 -10 -4 -7 -10 3 -5 -1 -10 -9 -10 -10 0 -13 -6 -10 -15 10 -24 -16
-45 -55 -45 -49 0 -79 9 -85 26 -4 10 2 12 24 7 23 -4 30 -2 30 10 0 21 -69
20 -77 0 -5 -12 -7 -12 -14 -2 -6 10 -11 10 -21 1 -10 -8 -18 -8 -25 -1 -7 7
-21 4 -44 -10 -19 -12 -46 -21 -61 -21 -16 0 -28 -4 -28 -9 0 -5 -17 -15 -37
-21 -21 -7 -45 -18 -53 -25 -8 -7 -25 -16 -36 -19 -12 -4 -24 -15 -27 -25 -3
-11 -17 -21 -39 -25 -19 -3 -43 -13 -54 -21 -10 -8 -36 -28 -58 -45 -21 -16
-47 -30 -57 -30 -20 0 -159 -44 -199 -63 -31 -15 -107 -87 -91 -87 7 0 9 -9 5
-25 -5 -18 -2 -25 9 -25 8 0 45 -30 82 -66 43 -43 71 -64 82 -60 13 6 71 -19
83 -36 3 -4 19 -14 35 -22 26 -14 31 -14 48 1 11 11 21 13 25 7 12 -18 81 -53
87 -44 7 11 45 1 45 -12 0 -6 7 -8 15 -4 8 3 21 -4 29 -16 13 -19 19 -20 41
-10 44 20 28 62 -25 62 -10 0 -31 7 -47 15 -15 8 -45 21 -65 29 -29 12 -39 22
-47 53 -25 87 -4 171 36 147 26 -16 63 10 63 45 0 51 33 72 94 60 35 -7 43 -5
55 12 7 10 20 19 27 19 8 0 25 18 39 40 29 46 55 55 131 46 42 -5 54 -3 54 7
0 8 19 18 43 24 23 6 50 14 60 18 12 5 17 3 17 -9 0 -21 7 -20 37 4 16 12 41
20 64 20 20 0 39 5 41 11 2 7 12 7 32 -1 20 -7 31 -7 36 -1 6 10 64 7 102 -5
9 -2 19 0 23 6 3 5 28 10 56 10 32 0 49 4 49 13 1 8 5 7 13 -4 15 -19 112 -53
127 -44 6 4 16 2 23 -3 7 -6 29 -15 50 -20 34 -9 40 -8 69 16 45 38 139 43
188 10 43 -29 73 -81 101 -173 35 -114 38 -116 36 -29 -2 73 1 84 25 120 15
22 40 47 56 56 26 16 31 16 51 2 27 -20 81 -112 81 -141 0 -12 7 -47 15 -79
14 -53 13 -58 -7 -98 -12 -22 -24 -48 -28 -56 -5 -10 -25 -16 -64 -18 -63 -3
-100 12 -111 48 -10 30 -22 24 -29 -14 -11 -56 -38 -81 -110 -100 -47 -13 -91
-17 -157 -15 -80 4 -93 7 -106 25 l-14 22 -29 -29 c-26 -27 -34 -29 -107 -29
-104 -1 -76 -17 45 -26 l92 -7 0 -28 c0 -35 -14 -42 -105 -58 -83 -14 -237 -8
-380 15 -55 8 -120 19 -145 22 -63 10 -66 36 -8 62 75 33 125 36 159 11 l29
-22 88 25 c53 15 76 25 59 25 -36 1 -85 30 -93 53 -7 23 -14 23 -70 -7 -55
-30 -69 -30 -136 -8 -32 10 -53 23 -56 35 -7 27 -19 22 -65 -24 -40 -41 -45
-43 -98 -43 -48 0 -60 4 -77 25 l-20 25 -22 -28 c-12 -15 -35 -34 -51 -42 -37
-20 -37 -30 1 -44 17 -5 30 -15 30 -21 0 -7 -6 -8 -19 0 -11 5 -30 10 -43 9
-23 -1 -23 -1 2 -9 14 -4 21 -9 15 -9 -5 -1 1 -7 15 -14 16 -8 24 -20 22 -31
-4 -22 19 -40 30 -24 8 15 128 17 146 4 8 -6 28 -9 44 -8 17 1 36 -3 44 -9 8
-6 27 -8 46 -4 22 4 29 3 19 -3 -21 -15 -6 -40 35 -57 47 -19 51 -19 57 5 4
17 12 19 69 16 34 -3 76 -10 92 -16 17 -6 48 -8 73 -4 39 6 43 4 43 -15 0 -13
-5 -19 -14 -15 -8 3 -17 1 -21 -5 -3 -6 0 -14 9 -17 8 -3 18 -18 21 -32 3 -15
18 -36 33 -47 l27 -20 -17 27 c-35 53 -13 66 34 21 l28 -27 0 27 c0 34 7 34
47 -2 23 -20 40 -27 58 -23 22 4 25 1 25 -28 0 -30 2 -31 30 -25 21 5 30 3 30
-6 0 -8 3 -10 10 -3 13 13 1 54 -15 48 -7 -3 -22 3 -33 14 -13 13 -28 18 -44
15 -14 -3 -29 2 -37 11 -11 13 -9 16 13 22 13 3 30 3 37 -1 7 -5 10 -3 7 6 -3
8 -15 15 -27 17 -32 5 -20 26 17 30 27 3 33 -2 51 -35 16 -31 20 -34 21 -15 0
31 12 28 34 -9 13 -22 21 -28 29 -20 7 7 14 5 24 -7 11 -14 13 -14 12 -2 -4
44 15 57 25 16 4 -17 11 -23 25 -19 23 6 33 -17 24 -58 -4 -20 -10 -28 -20
-25 -9 4 -13 0 -11 -12 2 -10 -6 -21 -19 -27 -13 -5 -23 -13 -23 -17 0 -20
-22 -5 -36 25 -9 19 -23 34 -31 34 -12 0 -13 -9 -8 -46 4 -25 12 -53 19 -61
21 -24 26 -58 9 -64 -8 -4 -13 -13 -9 -21 6 -17 -2 -45 -14 -45 -5 0 -6 10 -3
23 l5 22 -19 -21 c-32 -37 -125 -58 -150 -33 -15 15 -33 2 -26 -19 5 -15 4
-15 -8 1 -9 11 -21 16 -32 11 -19 -7 -22 -20 -7 -29 6 -4 4 -12 -5 -21 -8 -9
-15 -22 -15 -30 0 -8 -4 -14 -9 -14 -4 0 -21 -12 -36 -26 -22 -20 -25 -28 -14
-34 8 -5 19 -4 28 3 12 9 13 9 7 -1 -10 -17 20 -27 47 -14 28 13 92 10 92 -5
0 -6 4 -15 8 -19 12 -13 77 -12 77 0 0 8 2 8 8 0 4 -6 17 -13 30 -17 27 -6 64
27 55 51 -4 10 -2 13 6 8 6 -4 9 -16 6 -27 -7 -21 -9 -21 84 -24 55 -2 64 0
68 16 3 11 12 19 19 19 8 0 14 5 14 10 0 6 7 10 16 10 8 0 13 -4 9 -9 -9 -16
15 -24 30 -11 8 7 26 10 40 8 14 -3 28 -1 31 4 3 5 29 8 58 7 29 -1 59 2 67 7
8 5 46 10 86 11 54 1 73 -2 77 -13 8 -21 26 -17 26 6 0 11 7 20 15 20 8 0 15
-6 15 -14 0 -8 6 -16 14 -19 23 -9 110 3 126 18 8 7 29 17 45 21 17 3 38 13
47 21 21 19 44 8 28 -12 -19 -23 -1 -39 21 -19 22 19 21 20 35 -21 5 -16 19
-34 31 -40 38 -16 40 -58 4 -68 -11 -3 -20 -17 -23 -36 -4 -28 -3 -30 12 -16
9 8 22 15 28 15 20 0 14 -18 -8 -25 -23 -7 -26 -25 -8 -43 10 -10 8 -14 -10
-18 -25 -7 -29 -19 -7 -28 8 -3 15 -15 15 -26 0 -11 5 -20 10 -20 6 0 10 -5
10 -11 0 -7 -12 -10 -30 -7 -22 3 -30 1 -30 -10 0 -9 3 -12 7 -9 3 4 13 -2 21
-14 8 -11 11 -23 7 -27 -4 -4 -10 -1 -12 6 -3 6 -20 12 -39 12 -31 0 -34 -3
-34 -28 0 -35 9 -45 26 -31 14 11 34 4 34 -12 0 -5 -7 -9 -15 -9 -7 0 -18 -6
-22 -13 -4 -8 -16 -16 -25 -20 -15 -5 -18 0 -19 26 -1 31 -2 31 -10 -8 -5 -22
-10 -51 -12 -65 -2 -20 -9 -26 -43 -32 -30 -6 -44 -16 -52 -33 -7 -14 -18 -25
-27 -25 -8 0 -15 -5 -15 -10 0 -11 -56 -70 -66 -70 -12 0 -74 -65 -74 -77 0
-7 -4 -13 -8 -13 -5 0 -8 10 -8 21 1 12 -5 24 -11 26 -7 3 -13 -1 -13 -8 0 -7
-8 -21 -17 -32 -13 -15 -15 -21 -5 -24 19 -7 14 -47 -8 -71 -11 -12 -20 -26
-20 -31 0 -6 -10 -16 -22 -22 -33 -17 -33 -18 -12 -33 15 -12 16 -17 7 -27
-10 -10 -14 -9 -19 5 -4 11 -13 15 -27 10 -15 -5 -19 -3 -15 8 3 8 -2 25 -12
37 l-17 24 -6 -32 c-5 -25 -12 -31 -31 -31 -30 0 -34 -6 -37 -51 -3 -35 -3
-35 -45 -32 -40 3 -43 2 -49 -27 -4 -16 -4 -34 -1 -39 4 -5 2 -12 -4 -16 -5
-3 -10 3 -10 13 0 11 -6 25 -14 31 -8 7 -17 23 -20 37 -4 14 -11 22 -16 19 -6
-3 -10 1 -10 9 0 9 5 16 10 16 6 0 10 7 10 15 0 20 -12 19 -31 -3 -28 -33 -34
-46 -16 -39 10 4 18 -1 22 -13 11 -35 -6 -42 -28 -13 -12 15 -26 31 -31 35
-15 10 -37 -24 -25 -39 7 -7 6 -13 0 -17 -5 -4 -12 -2 -16 4 -11 17 -35 12
-28 -6 4 -12 2 -15 -8 -12 -8 3 -12 12 -10 19 2 8 4 20 4 27 0 15 14 16 19 0
2 -6 9 -9 15 -5 7 4 8 22 2 54 -10 51 -28 72 -44 49 -8 -13 -13 -12 -37 2 -24
14 -30 15 -37 3 -5 -7 -14 -10 -20 -7 -14 9 -14 43 -1 51 21 13 10 27 -16 21
-14 -4 -32 -2 -39 4 -18 15 -31 -6 -15 -24 8 -11 6 -24 -11 -55 -19 -37 -23
-40 -34 -24 -11 15 -13 15 -20 -6 -4 -12 -2 -28 4 -35 9 -10 8 -15 -4 -20 -9
-3 -18 0 -20 9 -3 8 -7 22 -10 30 -2 8 -10 15 -16 15 -8 0 -10 -14 -6 -45 4
-30 3 -45 -4 -45 -6 0 -8 -7 -5 -16 5 -13 1 -15 -18 -10 -28 7 -38 -10 -23
-35 6 -9 7 -25 2 -35 -7 -17 -8 -17 -15 6 -5 14 -8 19 -9 13 -1 -7 -9 -13 -19
-13 -25 0 -72 -23 -72 -35 0 -5 -9 -21 -20 -35 -15 -19 -22 -22 -28 -12 -5 7
-16 10 -25 7 -12 -5 -14 -2 -10 14 3 12 1 21 -5 21 -14 0 -22 -54 -9 -62 19
-12 17 -40 -2 -35 -10 2 -26 -2 -36 -9 -24 -18 -35 -18 -35 1 0 8 5 15 10 15
6 0 10 7 10 15 0 17 -9 19 -29 6 -12 -8 -12 -14 -1 -40 15 -37 7 -50 -17 -28
-25 22 -52 3 -53 -35 -1 -8 -6 -6 -14 5 -7 9 -16 17 -20 17 -3 0 -6 -8 -6 -17
0 -10 -7 -27 -15 -37 -17 -22 -20 -40 -6 -32 5 3 14 -1 21 -9 7 -8 21 -15 31
-15 11 0 19 -4 19 -10 0 -5 23 -17 50 -27 28 -10 50 -21 50 -25 0 -5 9 -8 20
-8 11 0 20 -6 20 -13 0 -9 12 -11 40 -9 23 2 40 0 40 -6 0 -6 9 -8 21 -5 14 4
22 0 25 -13 4 -15 14 -19 45 -18 21 1 39 -2 39 -7 0 -5 6 -9 14 -9 8 0 21 -9
29 -20 8 -12 27 -22 45 -23 20 -1 33 -8 36 -19 2 -11 14 -18 30 -18 14 0 26
-4 26 -10 0 -5 6 -10 14 -10 8 0 17 -12 20 -26 4 -16 17 -29 37 -36 20 -7 28
-15 25 -25 -8 -21 25 -29 39 -10 17 23 28 21 20 -3 -6 -18 -2 -20 39 -20 36 0
46 -4 46 -16 0 -9 -8 -22 -17 -29 -14 -11 -12 -13 17 -17 26 -4 34 -1 38 14 2
11 13 18 28 18 30 0 42 -20 21 -35 -10 -7 -17 -15 -17 -19 0 -10 48 -7 55 4 7
11 65 14 65 4 0 -13 -35 -33 -57 -34 -12 0 -25 -4 -28 -10 -4 -6 28 -10 89
-10 52 0 97 -4 100 -9 3 -5 22 -12 41 -15 28 -6 35 -11 35 -31 0 -13 7 -30 15
-39 8 -8 15 -31 15 -50 0 -33 3 -36 28 -36 15 0 33 5 40 12 15 15 43 -8 35
-29 -6 -16 6 -16 65 2 19 6 22 4 22 -17 0 -14 10 -36 23 -50 13 -14 21 -31 19
-38 -8 -22 -74 -90 -88 -90 -6 0 -15 -7 -18 -16 -9 -22 -8 -24 9 -24 8 0 15
-4 15 -10 0 -5 -5 -10 -11 -10 -8 0 -10 -14 -6 -44 5 -37 3 -48 -17 -71 -15
-17 -26 -23 -30 -16 -4 6 -11 11 -17 11 -12 0 -12 -30 1 -31 6 -1 15 -3 20 -4
6 -1 13 -3 17 -4 4 0 -3 -10 -15 -21 -24 -23 -29 -40 -10 -40 7 0 -3 -9 -22
-19 -28 -15 -34 -24 -32 -44 2 -18 -4 -29 -17 -37 -14 -7 -21 -23 -23 -53 l-3
-42 -42 2 c-24 1 -43 1 -43 0 0 -1 4 -18 10 -36 8 -30 6 -39 -16 -68 -26 -35
-79 -49 -68 -18 4 8 2 15 -4 15 -5 0 -12 -7 -16 -15 -3 -8 -2 -15 3 -15 5 0 9
-38 10 -85 2 -71 -1 -85 -14 -85 -8 0 -15 -3 -16 -7 0 -5 -2 -18 -4 -29 -3
-13 5 -32 19 -47 l24 -26 -29 -6 c-33 -8 -39 -34 -12 -61 12 -11 17 -31 15
-60 -1 -38 1 -43 26 -51 15 -4 36 -8 47 -8 11 0 27 -7 35 -16 8 -9 30 -20 48
-23 37 -9 42 -27 10 -41 -13 -6 -24 -20 -26 -32 -4 -25 7 -30 27 -10 10 10 12
8 9 -8 -2 -14 3 -20 17 -21 31 -1 95 -31 101 -48 3 -8 12 -12 20 -9 9 3 14 -2
14 -16 0 -12 6 -21 14 -21 8 0 13 -8 12 -17 0 -12 7 -19 22 -21 26 -4 29 -30
5 -48 -17 -12 -17 -13 1 -20 20 -8 37 11 29 33 -7 18 7 16 30 -4 11 -10 35
-18 55 -18 41 0 54 -22 27 -48 -20 -21 -19 -33 4 -33 11 0 17 4 15 8 -3 4 4 8
15 8 11 0 24 6 28 13 9 15 54 47 65 47 5 0 8 -10 8 -22 0 -12 3 -18 7 -15 3 4
13 1 21 -6 12 -9 16 -9 19 1 3 6 10 12 16 12 6 0 30 9 54 21 35 17 45 28 54
62 7 23 18 48 24 55 10 11 14 9 19 -13 4 -15 4 -36 0 -48 -6 -19 -5 -20 9 -8
9 7 19 29 23 48 4 23 15 38 30 45 13 6 24 15 24 20 0 4 7 8 15 8 8 0 18 12 21
27 10 40 14 45 29 33 11 -9 17 -5 29 17 17 32 69 83 85 83 6 0 11 5 11 10 0 6
9 10 21 10 12 0 17 4 14 11 -4 6 3 17 15 26 11 8 25 26 30 39 6 14 20 26 37
29 15 4 38 11 50 17 11 6 25 8 31 4 11 -6 55 28 46 37 -6 6 18 47 28 47 4 0 5
-6 2 -14 -3 -9 4 -19 17 -26 19 -10 21 -10 16 3 -7 18 22 47 46 47 21 0 22
-16 2 -24 -8 -3 -14 -16 -14 -28 l2 -23 4 23 c3 16 9 22 20 18 9 -4 17 1 19
11 3 10 23 27 45 37 21 11 39 22 39 25 0 4 -9 24 -21 45 -13 24 -17 41 -10 45
5 4 11 18 13 33 5 36 12 42 37 28 19 -9 21 -8 21 15 0 14 5 25 11 25 13 0 39
25 39 39 0 6 6 8 14 5 8 -3 17 -1 20 5 4 6 13 8 21 4 9 -3 15 1 16 8 1 8 4 3
8 -11 10 -32 -6 -79 -35 -105 -12 -11 -25 -31 -29 -44 -4 -12 -18 -39 -32 -60
-14 -20 -23 -28 -19 -18 4 13 2 17 -6 15 -7 -3 -15 -15 -16 -28 -2 -13 -11
-30 -20 -36 -15 -11 -15 -15 -3 -26 12 -11 13 -10 8 5 -5 12 -3 16 4 11 13 -7
98 81 167 174 26 34 71 95 101 135 201 265 447 740 486 936 22 109 5 270 -33
314 -9 10 -17 43 -20 79 -3 47 -9 66 -23 76 -18 12 -18 15 -4 35 8 12 15 35
14 52 0 24 -2 26 -8 11 -7 -19 -8 -19 -13 2 -4 12 0 26 8 33 11 9 11 15 3 25
-7 8 -8 33 -4 68 5 36 4 56 -3 56 -11 0 -10 13 3 43 4 10 3 28 -2 39 -7 15 -5
30 4 50 8 15 12 36 9 46 -3 10 -2 51 3 91 6 49 6 82 -1 100 -13 32 -16 151 -4
151 4 0 6 7 3 15 -4 8 -2 17 3 20 7 4 6 13 0 25 -7 13 -6 28 1 47 7 15 11 55
11 88 -1 33 6 98 14 145 9 47 17 95 19 106 2 12 31 66 66 120 118 187 177 293
224 401 26 59 55 126 65 148 9 22 22 56 28 75 37 117 52 172 52 193 0 12 4 27
8 33 30 35 64 361 66 634 1 80 5 151 10 159 5 8 5 16 -1 20 -12 7 -2 42 12 43
6 0 17 23 26 52 9 28 19 51 22 51 3 0 22 -22 42 -49 62 -80 159 -113 245 -83
94 34 291 200 288 243 -1 13 -11 27 -21 30 -10 3 -27 15 -37 27 l-20 21 -1
-25 c-1 -13 0 -34 1 -47 1 -12 -5 -25 -14 -28 -9 -3 -13 -10 -10 -15 3 -5 -6
-9 -20 -9 -14 0 -28 5 -31 10 -4 7 -12 7 -25 0 -27 -15 -70 -12 -76 4 -3 8
-12 12 -21 9 -34 -13 -102 45 -129 110 -9 20 -20 37 -25 37 -5 0 -8 3 -8 8 3
19 -3 33 -26 60 -16 19 -21 33 -15 37 6 3 8 10 5 15 -3 4 3 14 12 21 15 12 16
11 11 -9 -4 -12 -3 -20 1 -17 4 2 34 -20 66 -50 62 -59 63 -59 183 -57 41 1
72 -3 72 -8 0 -6 5 -10 11 -10 7 0 9 10 5 25 -7 29 17 46 37 26 16 -16 32 -14
18 3 -6 7 -9 21 -5 29 5 15 10 14 44 -3 21 -11 41 -24 45 -30 3 -5 15 -10 26
-10 27 0 35 -27 15 -49 -9 -10 -16 -24 -16 -32 0 -8 -5 -20 -12 -27 -6 -6 -9
-15 -5 -19 4 -3 21 7 38 23 35 32 109 129 109 141 0 4 16 30 35 57 19 27 35
54 35 60 0 6 7 24 15 39 8 15 19 42 24 60 6 18 19 57 30 87 22 59 28 136 11
125 -6 -4 -8 -15 -5 -26 4 -13 2 -17 -7 -14 -19 8 -43 48 -30 53 5 1 8 12 5
22 -6 23 16 27 35 8 7 -7 12 -8 12 -2 0 6 -6 16 -12 22 -9 9 -10 15 -2 20 6 4
14 32 17 62 4 30 12 60 20 65 7 6 20 39 29 75 8 36 30 106 48 155 30 85 33
101 41 287 5 120 5 217 -1 247 -12 66 2 145 39 223 34 68 36 91 20 166 -15 72
-57 115 -113 118 -26 1 -52 8 -61 18 -9 9 -27 16 -40 16 -24 0 -35 17 -35 52
0 14 5 18 15 14 11 -4 15 1 15 18 0 31 -45 40 -144 31 -70 -7 -72 -6 -84 19
-10 22 -9 26 4 26 14 0 15 7 10 43 -4 25 -3 37 3 28 7 -10 12 -8 24 10 l16 22
12 -29 c11 -29 11 -29 20 -6 4 12 12 22 17 22 10 0 34 100 30 121 -2 9 4 13
15 11 16 -3 17 4 11 68 -6 64 -5 70 12 70 18 1 18 1 1 14 -17 13 -16 14 3 19
12 3 24 -1 29 -11 7 -12 8 -4 4 25 -4 31 -1 46 11 59 16 15 18 15 31 -2 8 -11
-2 22 -20 71 -19 50 -34 96 -35 103 0 19 18 14 32 -8 7 -11 17 -20 22 -20 4 0
3 7 -4 15 -7 9 -14 27 -16 40 -2 14 -6 36 -8 50 -3 24 16 103 34 136 5 9 5 20
1 25 -5 5 -13 41 -20 81 -15 95 -15 98 4 83 17 -14 17 -15 19 65 1 44 -3 54
-31 84 -39 40 -41 51 -12 58 21 6 21 7 4 20 -11 7 -13 13 -7 13 10 0 10 5 2
20 -13 24 5 28 18 4 14 -24 25 1 12 26 -10 18 -9 19 15 10 39 -15 52 -11 30 8
-33 28 -56 70 -44 78 8 4 7 9 -2 14 -7 5 -13 17 -14 27 -1 10 -5 28 -9 41 -7
22 7 32 19 12 10 -15 25 -12 25 6 0 9 -8 18 -19 21 -15 4 -17 11 -11 44 5 27
4 42 -5 47 -6 4 -14 15 -18 25 -5 14 -2 16 17 11 18 -4 25 -1 29 17 3 13 1 30
-6 38 -10 12 -9 13 11 2 14 -7 22 -8 22 -1 0 5 -4 10 -9 10 -13 0 -34 57 -28
75 4 8 2 17 -4 20 -21 14 -60 135 -43 135 5 0 20 -11 34 -25 17 -16 33 -23 43
-19 15 5 13 11 -13 44 -17 21 -30 44 -30 52 0 7 -8 25 -17 38 l-17 24 31 -22
c24 -17 32 -19 36 -8 3 8 -5 24 -19 37 -13 12 -24 29 -24 38 0 12 3 12 12 3 7
-7 20 -12 30 -12 15 0 17 3 8 19 -5 11 -19 23 -30 26 -11 3 -25 15 -30 26 -15
26 4 25 30 -3 22 -24 21 -25 37 20 l12 33 -45 20 c-42 17 -45 21 -42 51 2 26
-2 35 -22 46 -24 13 -24 13 10 8 l35 -5 -32 27 c-18 16 -33 34 -33 41 0 11 3
11 15 1 8 -7 15 -9 15 -6 0 4 9 2 21 -5 19 -10 20 -9 14 12 -7 19 -5 21 19 15
28 -7 34 2 14 22 -9 9 -8 12 6 12 13 0 16 3 8 13 -5 6 -6 21 -2 32 5 14 0 29
-17 50 -13 17 -32 40 -41 52 -9 12 -25 22 -35 23 -15 0 -16 2 -5 14 8 8 17 10
23 6 6 -5 23 -14 39 -20 l29 -11 -17 26 c-9 14 -14 30 -11 35 4 6 -1 13 -10
16 -12 5 -13 9 -3 21 10 12 9 18 -7 29 -10 8 -24 14 -31 14 -6 0 -17 7 -24 15
-11 13 -8 15 14 15 l27 0 -22 32 c-15 20 -19 33 -12 35 8 3 7 10 -4 23 -9 10
-22 16 -28 13 -7 -2 -16 0 -20 6 -4 7 0 8 11 4 14 -5 16 -2 10 23 -5 20 -4 25
3 14 15 -22 27 -2 13 20 -17 28 -15 40 8 40 18 0 19 2 8 23 -7 12 -17 25 -23
29 -5 4 -10 11 -10 15 -1 17 -29 89 -51 133 -12 25 -28 59 -34 75 -11 28 -10
28 8 12 26 -24 36 -21 18 5 -9 12 -16 30 -16 38 0 9 -11 27 -25 40 -14 13 -25
31 -25 40 0 23 -37 93 -57 107 -9 7 -14 16 -10 19 4 4 15 1 24 -6 10 -7 0 5
-22 26 -48 47 -72 86 -47 77 10 -3 1 7 -18 23 -60 49 -82 75 -76 90 3 9 -1 14
-14 14 -11 0 -20 5 -20 10 0 6 -4 10 -9 10 -18 0 -80 45 -92 67 -9 17 -9 24 2
36 8 7 20 12 27 9 26 -8 -1 24 -43 53 -43 29 -56 45 -35 45 17 0 11 16 -25 71
-47 72 -47 131 0 79 27 -29 31 -16 6 17 -82 105 -181 288 -186 340 -2 34 -61
122 -82 123 -6 0 -15 10 -18 21 -6 16 -9 18 -15 8 -6 -9 -11 -4 -16 16 -4 17
-12 35 -18 41 -6 6 -29 34 -51 62 -22 28 -46 51 -54 52 -7 0 -29 16 -48 36
-38 41 -132 107 -213 150 -30 16 -60 36 -67 44 -11 13 -12 12 -13 -7 0 -13 -4
-23 -10 -23 -5 0 -10 7 -10 16 0 8 -17 22 -37 31 -83 34 -70 27 -204 113 -76
49 -105 66 -174 100 -33 17 -80 43 -105 59 -25 16 -55 30 -68 30 -33 1 -90 33
-142 78 -43 38 -128 95 -180 121 -14 7 -54 28 -89 47 -35 19 -73 35 -84 35
-11 0 -34 9 -52 20 -43 27 -117 40 -254 45 -87 3 -120 1 -142 -10 -15 -8 -39
-15 -53 -15 -14 0 -28 -5 -32 -11 -3 -6 -16 -8 -29 -5 -12 3 -25 3 -29 -1 -4
-4 -46 -7 -94 -8 -57 0 -95 -6 -109 -15 -18 -11 -25 -12 -35 -2 -16 16 -28 15
-28 -3 0 -8 -5 -15 -11 -15 -5 0 -8 4 -4 9 7 13 -12 24 -26 15 -8 -5 -8 -9 1
-14 6 -4 -18 -6 -54 -5 -46 1 -67 -2 -70 -11 -12 -31 -138 5 -191 55 -16 16
-45 33 -64 40 -45 15 -53 13 -16 -4z m1093 -72 c16 -16 16 -16 -1 -10 -10 4
-25 7 -33 7 -9 0 -12 5 -9 10 9 15 24 12 43 -7z m-27 -32 c19 -21 102 -38 107
-21 5 14 22 2 18 -13 -1 -7 -1 -9 1 -6 2 4 14 5 26 2 18 -4 16 1 -13 26 -19
17 -29 31 -23 31 24 0 132 -63 147 -85 15 -23 56 -40 56 -24 0 8 -15 13 -32
10 -5 0 -8 4 -8 10 0 13 27 5 95 -26 l50 -23 -62 3 c-34 2 -67 6 -74 10 -6 4
-15 2 -19 -5 -8 -12 -53 -4 -105 21 -22 10 -167 30 -233 33 -23 0 -46 6 -50
11 -4 6 -18 16 -32 22 -25 12 -25 12 8 12 17 1 32 -3 32 -9 0 -5 10 -9 23 -8
12 1 40 -4 61 -10 22 -6 43 -9 47 -6 4 2 10 0 14 -6 8 -12 25 -13 25 -1 0 4
-20 14 -45 21 -25 7 -45 17 -45 21 0 5 -7 9 -15 9 -8 0 -15 5 -15 10 0 17 45
11 61 -9z m-771 -11 c0 -5 -5 -10 -11 -10 -5 0 -7 5 -4 10 3 6 8 10 11 10 2 0
4 -4 4 -10z m-272 -30 c24 -1 106 -39 99 -47 -8 -8 -96 25 -124 47 -12 10 -19
20 -16 24 4 4 11 0 15 -9 5 -8 17 -15 26 -15z m-1904 -29 c3 -5 -1 -14 -9 -21
-8 -7 -15 -10 -15 -7 0 3 -3 12 -6 21 -7 17 20 23 30 7z m181 -61 c3 -5 1 -10
-4 -10 -6 0 -11 5 -11 10 0 6 2 10 4 10 3 0 8 -4 11 -10z m-25 -16 c0 -8 -4
-12 -10 -9 -5 3 -10 10 -10 16 0 5 5 9 10 9 6 0 10 -7 10 -16z m-300 -50 c0
-8 -4 -12 -10 -9 -5 3 -10 10 -10 16 0 5 5 9 10 9 6 0 10 -7 10 -16z m50 -4
c0 -5 -7 -10 -16 -10 -8 0 -12 5 -9 10 3 6 10 10 16 10 5 0 9 -4 9 -10z m1215
-50 c3 -5 1 -10 -4 -10 -6 0 -11 5 -11 10 0 6 2 10 4 10 3 0 8 -4 11 -10z
m-1375 -71 c0 -6 -4 -7 -10 -4 -5 3 -10 11 -10 16 0 6 5 7 10 4 6 -3 10 -11
10 -16z m-132 -57 c3 -9 -2 -13 -14 -10 -9 1 -19 9 -22 16 -3 9 2 13 14 10 9
-1 19 -9 22 -16z m-50 -10 c2 -7 -7 -12 -22 -12 -27 0 -35 15 -13 23 17 7 30
3 35 -11z m-528 -62 c0 -5 -15 -10 -32 -9 -28 0 -30 2 -13 9 28 12 45 12 45 0z
m118 -19 c6 -1 12 -5 12 -11 0 -15 -53 -12 -75 4 -18 13 -17 14 15 11 19 -2
41 -4 48 -4z m218 -17 l29 -16 -30 7 c-16 3 -34 11 -39 16 -16 15 9 11 40 -7z
m64 7 c0 -5 -7 -12 -16 -15 -14 -5 -15 -4 -4 9 14 17 20 19 20 6z m-363 -17
c-3 -3 -12 -4 -19 -1 -8 3 -5 6 6 6 11 1 17 -2 13 -5z m94 -14 c16 0 29 -4 29
-9 0 -14 -30 -22 -98 -27 -48 -3 -63 -1 -60 9 3 6 15 14 29 15 13 2 28 8 34
13 5 5 16 7 23 4 8 -3 27 -5 43 -5z m340 -12 c0 -10 2 -10 6 0 4 10 8 10 19 1
23 -19 16 -29 -18 -23 -50 9 -60 13 -53 24 9 14 45 12 46 -2z m4669 -19 c22
-12 43 -25 46 -31 8 -13 -68 20 -86 37 -20 21 -8 19 40 -6z m-4937 -6 c-7 -2
-19 -2 -25 0 -7 3 -2 5 12 5 14 0 19 -2 13 -5z m32 -13 c3 -5 1 -10 -4 -10 -6
0 -11 5 -11 10 0 6 2 10 4 10 3 0 8 -4 11 -10z m4987 -47 c19 7 60 -11 53 -23
-3 -5 7 -12 22 -16 43 -10 99 -41 128 -69 14 -15 29 -24 34 -21 5 3 15 -2 22
-12 13 -15 12 -16 -3 -3 -32 25 -19 0 28 -53 53 -59 77 -77 67 -49 -4 10 -16
28 -27 40 -33 33 -47 53 -40 53 4 0 45 -39 92 -87 48 -49 80 -82 72 -75 -8 6
-24 12 -37 12 -13 0 -26 7 -29 15 -4 8 -10 15 -15 15 -4 0 -5 -8 -2 -17 6 -15
2 -14 -27 4 -18 12 -49 37 -69 56 -39 37 -118 90 -196 130 -57 30 -128 94
-119 108 4 6 11 6 20 -2 7 -6 19 -9 26 -6z m-5392 -51 c0 -10 -45 -32 -63 -32
-17 1 32 40 49 40 8 0 14 -4 14 -8z m105 -132 c-3 -5 -13 -10 -21 -10 -8 0
-12 5 -9 10 3 6 13 10 21 10 8 0 12 -4 9 -10z m5751 -185 c10 -8 14 -15 8 -15
-5 0 -19 7 -30 15 -10 8 -14 15 -8 15 5 0 19 -7 30 -15z m122 -124 c-3 -11
-12 -4 -31 24 -36 53 -34 65 3 25 17 -18 29 -40 28 -49z m-6388 -72 c0 -5 -7
-9 -15 -9 -8 0 -15 7 -15 15 0 9 6 12 15 9 8 -4 15 -10 15 -15z m-199 -242
c-13 -13 -26 -3 -16 12 3 6 11 8 17 5 6 -4 6 -10 -1 -17z m-286 -287 c3 -5 1
-10 -4 -10 -6 0 -11 5 -11 10 0 6 2 10 4 10 3 0 8 -4 11 -10z m-309 -387 c-10
-10 -19 5 -10 18 6 11 8 11 12 0 2 -7 1 -15 -2 -18z m46 -109 c-6 -12 -9 -7
-9 16 0 23 3 28 9 16 5 -9 5 -23 0 -32z m68 36 c0 -5 -2 -10 -4 -10 -3 0 -8 5
-11 10 -3 6 -1 10 4 10 6 0 11 -4 11 -10z m-90 -60 c0 -5 -7 -10 -15 -10 -8 0
-15 5 -15 10 0 6 7 10 15 10 8 0 15 -4 15 -10z m7904 -356 c3 -8 2 -12 -4 -9
-6 3 -10 10 -10 16 0 14 7 11 14 -7z m106 -554 c0 -5 -2 -10 -4 -10 -3 0 -8 5
-11 10 -3 6 -1 10 4 10 6 0 11 -4 11 -10z m-7022 -486 c-1 -38 -13 -45 -23
-14 -4 11 -10 18 -15 15 -4 -3 -6 3 -3 13 2 10 13 18 23 19 16 1 19 -5 18 -33z
m71 17 c9 -6 10 -11 2 -15 -6 -4 -15 -5 -20 -2 -5 4 -11 1 -13 -6 -2 -6 -10
-8 -17 -4 -9 6 -9 11 0 22 13 16 28 18 48 5z m-149 -20 c0 -5 5 -22 10 -37 8
-20 14 -24 22 -16 8 8 18 6 38 -8 32 -22 42 -17 34 17 -6 22 -4 24 22 21 28
-3 29 -5 29 -61 0 -54 1 -57 24 -55 32 4 39 -19 9 -31 -13 -5 -31 -19 -41 -31
-15 -17 -21 -19 -33 -10 -8 7 -14 8 -14 2 0 -5 -8 -12 -17 -15 -10 -2 -26 -8
-35 -12 -13 -5 -18 -3 -18 8 0 8 -18 29 -40 47 -58 47 -77 134 -34 155 11 5
19 16 16 23 -2 6 3 12 12 12 9 0 16 -4 16 -9z m-74 -238 c-8 -9 -46 32 -46 50
0 7 12 -1 27 -15 15 -15 23 -31 19 -35z m179 -3 c-3 -5 -14 -10 -23 -9 -14 0
-13 2 3 9 27 11 27 11 20 0z m110 -20 c0 -10 -8 -14 -25 -12 -31 5 -34 8 -25
22 10 16 50 8 50 -10z m6853 7 c16 -19 26 -67 13 -67 -8 0 -41 60 -41 76 0 9
18 3 28 -9z m-7064 -126 c11 -16 -5 -39 -35 -51 -16 -7 -29 -16 -29 -20 0 -11
-30 -21 -40 -15 -12 8 0 37 13 32 11 -3 63 44 59 56 -3 10 26 9 32 -2z m4142
-13 c3 -5 -6 -6 -23 -2 -40 9 -50 22 -13 16 17 -2 33 -8 36 -14z m-4256 -21
c0 -19 -39 -39 -63 -31 -30 9 -40 28 -19 36 30 12 82 9 82 -5z m5464 -42 c44
-41 70 -47 35 -8 -13 15 -17 22 -8 15 8 -6 31 -11 51 -10 43 1 63 -9 49 -26
-8 -10 -4 -12 17 -9 15 2 34 -1 42 -7 13 -9 13 -11 0 -20 -8 -5 -20 -8 -27 -5
-7 2 -15 0 -18 -5 -10 -15 29 -12 64 6 32 16 61 13 61 -6 0 -6 -10 -8 -24 -4
-19 4 -26 1 -31 -16 -4 -14 -12 -19 -22 -16 -10 4 -13 2 -10 -8 5 -11 -3 -10
-31 5 -20 12 -44 27 -53 35 -8 8 -30 17 -47 20 -26 5 -31 4 -27 -9 4 -9 14
-13 26 -10 10 3 19 1 19 -5 0 -5 8 -13 18 -16 38 -15 116 -62 120 -74 5 -16
-25 -16 -31 1 -2 6 -8 8 -13 4 -11 -11 34 -49 47 -41 14 8 41 -17 35 -33 -3
-7 0 -13 7 -13 7 0 4 -5 -5 -11 -29 -17 -21 -32 13 -25 25 5 30 3 27 -12 -1
-9 12 -31 30 -49 31 -30 42 -63 22 -63 -5 0 -10 7 -10 15 0 8 -4 15 -10 15 -5
0 -10 -5 -10 -11 0 -7 -11 -9 -30 -5 -16 3 -30 1 -30 -4 0 -5 -13 -7 -30 -3
-18 3 -30 1 -30 -5 0 -5 9 -8 20 -5 14 4 20 0 20 -11 0 -9 2 -16 4 -16 2 0 12
-3 22 -7 14 -5 16 -3 10 13 -5 14 -4 16 4 8 9 -9 9 -17 0 -33 -9 -18 -8 -22 7
-27 10 -3 26 -9 35 -14 11 -6 18 -5 21 3 3 9 9 9 23 -1 11 -7 34 -19 52 -27
17 -9 32 -20 32 -25 0 -7 -7 -7 -21 0 -25 14 -37 5 -23 -18 6 -9 29 -19 50
-22 38 -5 38 -6 11 -13 -15 -4 -32 -5 -37 -2 -22 14 -19 -20 4 -44 14 -15 26
-32 26 -39 0 -7 5 -12 10 -12 6 0 10 -12 10 -27 0 -21 3 -24 10 -13 5 8 12 11
17 7 11 -12 -12 -42 -31 -39 -9 2 -16 -2 -16 -8 0 -5 -7 -10 -15 -10 -8 0 -15
-6 -15 -14 0 -18 27 -29 33 -13 3 8 13 6 33 -8 16 -11 42 -27 58 -35 27 -14
28 -15 8 -18 -27 -4 -28 -13 -3 -32 22 -15 19 -32 -4 -24 -10 4 -12 0 -8 -15
4 -17 8 -19 20 -10 23 20 36 -3 25 -44 -9 -32 -8 -36 11 -41 17 -4 19 -8 9
-18 -18 -18 -15 -38 7 -38 11 0 21 -9 24 -22 7 -26 -7 -57 -17 -39 -13 21 -33
11 -39 -19 -8 -35 -27 -40 -28 -7 0 12 -3 16 -6 10 -10 -25 -20 -12 -25 31 -6
47 -45 109 -65 102 -7 -3 -10 1 -6 10 3 7 8 14 12 14 4 0 7 9 8 20 2 28 -11
25 -32 -6 -13 -20 -19 -23 -25 -13 -5 7 -7 16 -4 20 2 4 0 10 -6 14 -13 8 -13
45 0 45 9 0 14 -14 11 -32 0 -5 8 -8 20 -8 14 0 19 5 17 18 -2 9 -10 16 -16
14 -16 -3 -26 23 -18 44 6 15 9 14 31 -6 13 -12 25 -32 27 -43 2 -11 10 -23
18 -25 13 -5 13 -3 1 11 -7 9 -11 24 -7 32 3 8 1 15 -4 15 -6 0 -18 16 -27 35
-9 19 -20 35 -25 35 -4 0 -8 7 -8 15 0 8 -7 15 -15 15 -16 0 -19 9 -9 34 3 9
10 13 15 10 14 -8 10 9 -6 30 -13 17 -15 18 -15 3 0 -9 -7 -17 -15 -17 -24 0
-17 29 8 35 16 4 22 14 23 36 1 24 -2 28 -17 24 -12 -4 -19 -1 -19 7 0 14 -51
40 -87 44 -17 2 -23 -3 -23 -17 0 -24 -16 -25 -24 -1 -3 9 -9 24 -13 32 -5 13
-4 13 10 2 20 -17 37 -8 37 19 0 15 -5 19 -17 15 -22 -6 -63 26 -63 48 0 9 -7
19 -15 22 -8 4 -15 12 -15 19 0 16 35 9 51 -11 13 -16 39 -19 39 -5 0 10 -56
41 -73 41 -13 0 -47 30 -47 42 0 4 12 8 26 8 23 0 25 2 14 15 -11 13 -15 13
-22 3 -7 -10 -12 -9 -23 6 -16 21 -12 36 11 36 8 0 14 5 14 10 0 6 -4 10 -9
10 -13 0 -22 28 -11 35 5 3 26 -10 45 -30 20 -19 40 -35 45 -35 6 0 10 -4 10
-10 0 -5 7 -10 16 -10 14 0 14 3 4 15 -10 12 -10 15 1 15 9 1 5 8 -10 20 -13
11 -20 20 -16 20 4 0 2 6 -4 13 -6 8 -7 18 -3 22 4 5 1 5 -6 1 -7 -4 -21 -2
-30 6 -15 12 -16 11 -3 -5 30 -38 0 -27 -39 14 -65 71 -68 73 -84 87 -8 6 -27
12 -41 12 -24 0 -25 2 -19 38 4 31 2 39 -16 50 -20 12 -21 12 -15 -10 4 -13
13 -26 19 -30 6 -5 3 -8 -10 -8 -24 0 -68 55 -60 76 3 8 17 14 32 14 24 0 26
3 21 30 -4 17 -5 30 -3 30 2 0 20 -16 40 -35z m151 25 c3 -5 1 -10 -4 -10 -6
0 -11 5 -11 10 0 6 2 10 4 10 3 0 8 -4 11 -10z m35 -24 c0 -2 -7 -6 -15 -10
-8 -3 -15 -1 -15 4 0 6 7 10 15 10 8 0 15 -2 15 -4z m40 -21 c0 -8 -4 -15 -9
-15 -13 0 -22 16 -14 24 11 11 23 6 23 -9z m80 -50 c0 -8 -4 -15 -10 -15 -5 0
-10 7 -10 15 0 8 5 15 10 15 6 0 10 -7 10 -15z m-37 -42 c-7 -2 -19 -2 -25 0
-7 3 -2 5 12 5 14 0 19 -2 13 -5z m227 -33 c0 -5 -2 -10 -4 -10 -3 0 -8 5 -11
10 -3 6 -1 10 4 10 6 0 11 -4 11 -10z m-227 -31 c9 -17 17 -35 17 -40 0 -15
-33 6 -36 22 -1 8 -5 22 -9 32 -12 29 9 19 28 -14z m62 21 c3 -6 0 -17 -8 -25
-13 -13 -17 -11 -31 10 -16 24 -16 25 8 25 14 0 28 -5 31 -10z m87 -21 c17 -9
18 -13 7 -20 -23 -15 -39 -10 -39 11 0 23 4 24 32 9z m-427 -19 c3 -5 1 -10
-4 -10 -6 0 -11 5 -11 10 0 6 2 10 4 10 3 0 8 -4 11 -10z m72 -12 c13 -12 23
-31 23 -43 0 -11 5 -26 12 -33 9 -9 8 -12 -4 -12 -8 0 -21 7 -28 15 -9 10 -9
15 -1 15 20 0 12 28 -14 48 -25 20 -32 32 -18 32 4 0 17 -10 30 -22z m319 -76
c-8 -7 -85 31 -80 39 3 5 23 -1 44 -13 21 -13 37 -24 36 -26z m119 38 c3 -5 1
-10 -4 -10 -6 0 -11 5 -11 10 0 6 2 10 4 10 3 0 8 -4 11 -10z m235 -44 c0 -3
-7 -3 -15 0 -8 4 -15 13 -15 21 0 12 2 12 15 -1 8 -8 15 -17 15 -20z m-262 -8
c-7 -20 -58 -23 -58 -4 0 11 10 16 31 16 20 0 29 -4 27 -12z m52 -30 c0 -13
-23 -5 -28 10 -2 7 2 10 12 6 9 -3 16 -11 16 -16z m255 2 c3 -5 1 -10 -4 -10
-6 0 -11 5 -11 10 0 6 2 10 4 10 3 0 8 -4 11 -10z m-410 -38 c-3 -3 -11 0 -18
7 -9 10 -8 11 6 5 10 -3 15 -9 12 -12z m50 -30 c-8 -9 -35 20 -28 31 4 6 11 3
19 -8 8 -10 12 -21 9 -23z m382 -8 c-3 -3 -12 -4 -19 -1 -8 3 -5 6 6 6 11 1
17 -2 13 -5z m-342 -25 c-10 -15 -25 -10 -19 6 4 8 10 12 15 9 5 -3 7 -10 4
-15z m120 12 c3 -5 1 -12 -5 -16 -5 -3 -10 1 -10 9 0 18 6 21 15 7z m59 -6 c4
-13 2 -14 -14 -5 -23 13 -26 20 -6 20 8 0 16 -7 20 -15z m-259 -25 c3 -5 1
-10 -4 -10 -6 0 -11 5 -11 10 0 6 2 10 4 10 3 0 8 -4 11 -10z m210 -10 c3 -5
2 -10 -4 -10 -5 0 -13 5 -16 10 -3 6 -2 10 4 10 5 0 13 -4 16 -10z m60 -10 c3
-5 -1 -10 -9 -10 -8 0 -18 5 -21 10 -3 6 1 10 9 10 8 0 18 -4 21 -10z m-340
-10 c3 -5 1 -10 -4 -10 -6 0 -11 5 -11 10 0 6 2 10 4 10 3 0 8 -4 11 -10z
m101 -2 c5 -8 2 -9 -9 -5 -10 3 -17 2 -17 -4 0 -6 -5 -7 -11 -3 -8 4 -7 9 2
15 19 12 27 11 35 -3z m431 -25 c-3 -3 -11 -2 -17 2 -8 5 -7 11 2 22 12 15 13
14 16 -1 2 -10 1 -20 -1 -23z m-2140 11 c-3 -3 -12 -4 -19 -1 -8 3 -5 6 6 6
11 1 17 -2 13 -5z m-97 -26 c-36 -10 -90 -26 -120 -35 -30 -8 -95 -28 -143
-45 -49 -16 -91 -28 -93 -25 -8 8 201 84 276 100 111 24 114 25 130 25 8 0
-14 -9 -50 -20z m2058 -6 c9 9 15 9 24 0 9 -9 8 -12 -8 -12 -11 0 -26 -9 -34
-20 -20 -27 -25 -25 -27 10 -2 26 0 29 16 21 12 -7 22 -6 29 1z m1027 -12 c3
-5 1 -10 -4 -10 -6 0 -11 5 -11 10 0 6 2 10 4 10 3 0 8 -4 11 -10z m-1093 -33
c4 -7 8 -21 8 -32 -1 -19 -1 -19 -15 -1 -10 13 -21 17 -39 12 -15 -4 -26 -2
-26 4 0 5 7 10 15 10 13 0 14 4 5 20 -10 18 -9 19 17 9 15 -6 31 -16 35 -22z
m-422 -7 c0 -5 -2 -10 -4 -10 -3 0 -8 5 -11 10 -3 6 -1 10 4 10 6 0 11 -4 11
-10z m590 -20 c0 -5 -7 -10 -15 -10 -8 0 -15 5 -15 10 0 6 7 10 15 10 8 0 15
-4 15 -10z m-235 -29 c3 -5 1 -12 -5 -16 -5 -3 -10 1 -10 9 0 18 6 21 15 7z
m-6565 -11 c0 -5 -4 -10 -10 -10 -5 0 -10 5 -10 10 0 6 5 10 10 10 6 0 10 -4
10 -10z m6800 0 c13 0 17 -5 13 -20 -6 -24 -21 -26 -29 -5 -4 10 -13 13 -25
10 -11 -4 -19 -2 -19 3 0 15 13 23 28 17 7 -3 22 -5 32 -5z m-430 -42 c0 -5 4
-7 8 -4 14 9 33 -10 26 -27 -9 -23 -45 -21 -51 2 -3 14 -13 19 -30 18 -14 -1
-28 4 -31 12 -3 10 2 12 22 7 15 -4 26 -2 26 3 0 6 7 8 15 5 8 -4 15 -10 15
-16z m386 -54 c-32 -23 -46 -18 -39 16 5 26 3 29 -12 24 -15 -6 -16 -4 -5 16
l12 23 32 -32 c30 -31 30 -33 12 -47z m-98 48 c2 -7 -1 -12 -7 -12 -6 0 -11 5
-11 11 0 5 -5 7 -12 3 -7 -4 -8 -3 -4 5 9 14 28 10 34 -7z m-21 -67 c6 -14 9
-25 6 -25 -8 0 -29 24 -36 42 -10 27 16 11 30 -17z m-1918 -5 c4 0 12 5 19 12
6 6 39 13 74 15 l63 5 -30 -34 c-16 -18 -34 -36 -40 -40 -17 -12 1 -19 27 -9
24 9 76 14 131 12 35 -1 53 -39 28 -58 -13 -9 -14 -14 -3 -24 16 -17 15 -29
-2 -29 -8 0 -21 -6 -28 -13 -7 -7 -25 -21 -41 -31 -20 -14 -25 -22 -17 -31 7
-9 7 -21 -2 -41 -25 -59 -48 -83 -86 -90 -20 -4 -41 -10 -47 -14 -5 -4 -26
-10 -45 -14 -40 -7 -192 -63 -200 -74 -3 -4 -23 -16 -45 -27 -21 -11 -80 -61
-131 -110 -88 -87 -92 -92 -98 -145 -8 -64 -35 -132 -48 -124 -5 3 -7 12 -4
20 9 24 -10 15 -24 -11 -15 -29 -26 -25 -44 18 -8 18 -15 26 -15 20 -1 -7 -5
-13 -9 -13 -4 0 -8 25 -8 55 -1 50 1 55 17 50 12 -4 19 -1 19 7 0 22 39 41 56
27 11 -9 14 -8 14 9 0 28 -21 73 -31 66 -9 -5 -74 57 -81 78 -3 8 -21 13 -51
12 -49 -1 -54 4 -37 36 6 11 6 21 1 25 -5 3 -12 -4 -16 -15 -3 -11 -10 -20
-15 -20 -5 0 -7 -6 -4 -13 6 -16 -25 -19 -43 -5 -7 6 -15 3 -22 -9 -9 -16 -12
-16 -21 -3 -8 13 -10 13 -10 -2 0 -27 -46 -23 -61 4 -6 12 -11 41 -11 64 1 24
-3 46 -8 49 -6 4 -10 -1 -10 -9 0 -8 -4 -17 -9 -20 -5 -4 -1 21 9 54 22 72 83
186 99 183 6 -2 8 4 4 14 -4 11 -3 14 5 9 7 -4 12 0 13 11 1 17 2 17 6 1 6
-24 13 -23 40 9 l23 26 0 -27 c0 -25 2 -26 45 -22 25 3 47 0 50 -5 4 -5 -4
-23 -16 -41 -13 -17 -18 -29 -12 -25 7 4 19 -9 30 -33 10 -22 25 -40 33 -41 8
0 23 -2 33 -4 24 -5 77 23 77 41 0 8 4 14 9 14 6 0 17 13 26 28 12 19 32 33
61 41 33 10 49 22 61 45 10 17 16 35 15 39 -4 14 29 20 54 9 20 -10 24 -9 24
4 0 8 4 13 9 9 5 -3 12 4 16 15 3 11 14 20 24 20 10 0 24 7 31 15 7 8 16 13
20 10 5 -3 11 -1 15 5 3 5 17 10 31 10 13 0 24 4 24 9 0 5 14 11 30 15 17 3
34 14 37 23 7 17 8 17 11 1 2 -10 7 -18 11 -18z m291 10 c0 -5 -7 -10 -16 -10
-8 0 -12 5 -9 10 3 6 10 10 16 10 5 0 9 -4 9 -10z m1340 -5 c0 -9 -6 -12 -15
-9 -8 4 -15 10 -15 15 0 5 7 9 15 9 8 0 15 -7 15 -15z m227 -13 c8 -5 4 -16
-14 -36 -29 -34 -49 -24 -34 17 11 27 26 33 48 19z m60 -38 c-3 -3 -12 -4 -19
-1 -8 3 -5 6 6 6 11 1 17 -2 13 -5z m-2417 -45 c0 -6 -4 -7 -10 -4 -5 3 -10
11 -10 16 0 6 5 7 10 4 6 -3 10 -11 10 -16z m-170 -7 c0 -10 -21 -32 -31 -32
-4 0 -5 9 -2 20 5 19 33 29 33 12z m2657 -28 c-9 -9 -28 6 -21 18 4 6 10 6 17
-1 6 -6 8 -13 4 -17z m-287 -29 c0 -8 -7 -15 -15 -15 -8 0 -15 7 -15 15 0 8 7
15 15 15 8 0 15 -7 15 -15z m-2360 1 c0 -3 -4 -8 -10 -11 -5 -3 -10 -1 -10 4
0 6 5 11 10 11 6 0 10 -2 10 -4z m-220 -27 c-7 -11 -14 -18 -17 -15 -8 8 5 36
17 36 7 0 7 -6 0 -21z m2851 -36 c-4 -9 -7 -23 -6 -32 1 -9 0 -10 -2 -4 -3 7
-15 16 -29 19 -29 7 -32 24 -5 24 11 0 23 5 26 10 10 17 26 0 16 -17z m-511
-44 c0 -11 -3 -19 -8 -19 -4 0 -6 -20 -4 -45 5 -54 -13 -61 -22 -9 -4 19 -10
42 -13 50 -3 8 1 14 11 14 13 0 15 6 10 28 -7 24 -6 26 9 13 10 -7 17 -22 17
-32z m90 -9 c0 -5 -2 -10 -4 -10 -3 0 -8 5 -11 10 -3 6 -1 10 4 10 6 0 11 -4
11 -10z m117 -35 c8 -23 1 -24 -32 -4 l-30 19 28 0 c16 0 30 -7 34 -15z m84
-5 c22 0 30 -5 35 -26 9 -36 -8 -49 -31 -24 -10 11 -24 20 -30 20 -7 0 -18 7
-26 16 -10 13 -10 17 2 24 8 6 15 6 17 0 2 -6 17 -10 33 -10z m278 7 c15 -19
3 -29 -21 -16 -10 5 -24 7 -31 3 -8 -5 -7 -2 2 9 16 20 35 22 50 4z m-1822 -3
c-3 -3 -12 -4 -19 -1 -8 3 -5 6 6 6 11 1 17 -2 13 -5z m1923 -50 c0 -14 -21
-19 -32 -8 -3 3 -4 14 -1 25 4 15 8 17 19 8 8 -6 14 -18 14 -25z m-125 16 c3
-5 -3 -10 -14 -10 -12 0 -21 5 -21 10 0 6 6 10 14 10 8 0 18 -4 21 -10z m93
-80 c51 -12 91 -25 88 -28 -8 -7 -199 38 -211 50 -7 7 -3 9 10 5 11 -3 62 -15
113 -27z m-433 0 c-3 -5 -10 -10 -16 -10 -5 0 -9 5 -9 10 0 6 7 10 16 10 8 0
12 -4 9 -10z m65 6 c0 -11 -19 -15 -25 -6 -3 5 1 10 9 10 9 0 16 -2 16 -4z
m68 -18 c-3 -7 -13 -13 -23 -13 -10 0 -20 6 -22 13 -3 7 5 12 22 12 17 0 25
-5 23 -12z m-57 -28 c10 -6 19 -17 19 -25 0 -15 21 -20 33 -9 8 8 77 15 77 8
0 -14 -32 -35 -45 -30 -8 3 -28 -2 -45 -12 -30 -17 -30 -17 -53 10 -12 15 -31
28 -41 30 -11 2 -21 9 -24 17 -3 10 1 12 17 8 11 -3 24 -1 27 4 7 11 11 11 35
-1z m504 0 c13 -5 14 -9 5 -9 -8 0 -24 4 -35 9 -13 5 -14 9 -5 9 8 0 24 -4 35
-9z m-635 -10 c0 -5 -5 -10 -11 -10 -5 0 -7 5 -4 10 3 6 8 10 11 10 2 0 4 -4
4 -10z m-2647 -27 c26 -9 47 -20 47 -25 0 -4 -12 -3 -26 2 -14 6 -35 10 -47
10 -12 1 -35 7 -52 15 l-30 13 30 1 c17 1 51 -7 78 -16z m1095 -16 c2 -10 -2
-24 -8 -32 -10 -12 -17 -12 -46 2 -53 26 -44 56 16 51 24 -2 36 -8 38 -21z
m2335 -12 c42 -15 76 -29 75 -30 -5 -4 -158 24 -169 30 -14 9 -11 38 4 33 6
-3 47 -17 90 -33z m-439 9 c4 -9 9 -14 13 -11 3 4 14 2 24 -4 13 -7 19 -6 19
1 0 6 11 8 28 4 41 -10 50 -24 17 -25 -59 -3 -100 3 -117 18 -16 14 -18 14
-24 -1 -7 -17 -54 -23 -54 -6 0 5 7 7 15 4 10 -4 15 0 15 15 0 17 6 21 29 21
18 0 31 -6 35 -16z m-2052 -124 c26 -59 26 -60 6 -60 -38 0 -98 32 -98 53 0
24 31 66 50 67 9 0 26 -24 42 -60z m2991 -40 c3 -11 1 -20 -4 -20 -5 0 -9 9
-9 20 0 11 2 20 4 20 2 0 6 -9 9 -20z m-7803 -71 c0 -11 -4 -17 -10 -14 -5 3
-10 15 -10 26 0 11 5 17 10 14 6 -3 10 -15 10 -26z m7130 6 c6 -8 9 -18 6 -24
-3 -5 -2 -11 4 -13 5 -1 11 -25 14 -51 2 -27 12 -57 21 -67 13 -14 13 -19 3
-23 -10 -3 -8 -10 7 -26 15 -18 17 -26 8 -41 -10 -15 -9 -19 4 -24 11 -5 14
-14 9 -36 -3 -17 -2 -30 2 -30 12 0 30 -48 21 -57 -5 -5 -4 -24 1 -43 6 -20 6
-36 1 -38 -8 -3 -3 -27 18 -82 7 -20 11 -109 5 -136 -6 -35 -42 -37 -59 -4
-11 22 -12 30 -2 34 6 2 -2 4 -18 3 -17 0 -36 2 -43 7 -7 4 -12 2 -12 -4 0 -7
9 -14 20 -17 15 -4 18 -11 14 -29 -4 -14 -1 -31 6 -39 13 -16 0 -21 -15 -6 -6
5 -18 1 -29 -10 -15 -14 -16 -19 -5 -20 8 -1 21 -2 29 -3 17 -1 15 -47 -4 -58
-7 -5 -5 -8 7 -8 9 0 17 -5 17 -11 0 -6 -7 -9 -15 -5 -11 4 -15 -1 -15 -18 0
-14 -6 -26 -12 -28 -10 -4 -9 -10 3 -28 14 -22 14 -25 -3 -42 -10 -10 -25 -18
-33 -18 -8 0 -15 -5 -15 -11 0 -6 -7 -8 -16 -5 -10 4 -18 0 -21 -13 -6 -23
-32 -36 -46 -22 -13 13 0 31 24 31 10 0 19 6 19 13 0 8 12 19 27 26 25 11 26
14 10 23 -10 5 -31 7 -46 3 -31 -6 -43 4 -48 39 -3 18 -2 18 15 3 19 -17 62
-24 62 -9 -1 10 -78 44 -88 38 -12 -7 -29 6 -36 31 -6 18 -4 22 8 17 8 -3 17
-13 19 -22 3 -11 5 -8 6 7 1 31 -56 84 -110 101 -22 7 -39 19 -39 26 0 7 -4
15 -9 18 -20 12 4 -40 26 -57 13 -10 23 -25 23 -33 0 -8 4 -14 9 -14 5 0 12
-7 15 -16 4 -12 2 -15 -9 -10 -9 3 -15 0 -15 -10 0 -8 7 -17 15 -20 8 -4 15
-11 15 -17 0 -6 -16 4 -35 23 -26 26 -32 37 -24 47 9 10 7 13 -10 13 -26 0
-26 -5 0 -41 18 -26 19 -30 5 -45 -9 -8 -21 -12 -27 -8 -9 5 -6 12 7 22 12 9
13 13 4 10 -50 -17 -62 -19 -57 -12 3 5 -7 9 -23 9 -15 0 -26 -5 -24 -10 4
-11 64 -34 98 -39 11 -1 22 -8 24 -14 4 -12 -10 -16 -37 -12 -9 1 -12 -5 -8
-19 6 -24 -4 -26 -36 -10 -18 9 -20 9 -9 -2 20 -22 14 -29 -24 -29 -23 0 -42
6 -50 18 -12 16 -13 15 -14 -5 0 -25 -14 -30 -26 -11 -5 8 -11 6 -20 -6 -7
-10 -17 -15 -23 -11 -6 3 -11 2 -11 -3 0 -6 -10 -8 -22 -6 -21 4 -21 3 2 -7
14 -6 37 -17 52 -25 14 -8 41 -15 59 -17 18 -1 35 -9 37 -16 3 -10 0 -12 -11
-8 -9 3 -17 1 -20 -6 -3 -9 -11 -8 -33 1 l-29 14 23 -24 c25 -28 27 -35 10
-41 -7 -2 -3 -2 9 0 14 2 31 -6 47 -22 14 -14 30 -25 36 -25 5 0 10 -7 10 -15
0 -21 -24 -19 -45 5 -10 11 -20 18 -23 15 -3 -3 3 -14 13 -25 10 -11 13 -20 7
-20 -7 0 -12 5 -12 11 0 6 -6 9 -14 6 -8 -3 -33 7 -55 24 -43 31 -53 32 -23 3
25 -25 24 -51 -2 -48 -12 1 -25 3 -30 3 -4 1 -6 8 -2 16 4 10 -5 22 -27 35
-46 28 -58 24 -19 -6 35 -28 43 -49 15 -40 -10 3 -29 -3 -43 -14 -22 -17 -23
-20 -7 -25 9 -4 17 -16 17 -27 0 -12 12 -24 33 -33 26 -12 28 -14 10 -15 -12
0 -25 5 -29 11 -4 8 -9 8 -17 0 -8 -8 -8 -14 1 -23 18 -18 14 -30 -8 -23 -13
4 -22 1 -26 -8 -3 -9 -16 -18 -30 -21 -13 -4 -24 -13 -24 -20 0 -17 27 -29 32
-14 4 12 48 -7 48 -21 0 -12 -39 -21 -46 -10 -3 5 -12 9 -20 9 -8 0 -13 -4 -9
-9 3 -5 2 -11 -2 -14 -10 -5 -72 60 -65 68 4 3 -1 3 -11 -1 -22 -8 -21 -10 4
-35 19 -19 20 -23 6 -30 -8 -5 -23 -10 -34 -12 -11 -1 -30 -13 -43 -25 -13
-12 -35 -22 -48 -22 -21 0 -23 -4 -18 -25 5 -21 2 -25 -31 -35 -21 -7 -47 -18
-57 -26 -17 -12 -21 -23 -25 -68 -1 -5 -7 -3 -15 3 -16 13 -41 -10 -34 -31 6
-16 -16 -39 -40 -43 -11 -1 -16 -10 -15 -24 2 -11 -2 -21 -8 -21 -5 0 -7 6 -3
13 4 6 -3 3 -15 -8 -13 -11 -26 -19 -30 -18 -3 1 -16 0 -28 -4 -25 -6 -30 -19
-10 -26 8 -3 5 -10 -10 -21 -21 -16 -22 -23 -19 -94 3 -52 0 -79 -7 -84 -8 -5
-6 -8 6 -8 19 0 24 -39 7 -56 -8 -8 -7 -20 1 -40 13 -30 20 -265 9 -274 -4 -3
-25 -33 -48 -67 -23 -34 -46 -64 -51 -67 -5 -4 -12 -20 -16 -36 -6 -28 -25
-43 -25 -20 0 6 -9 10 -20 10 -16 0 -20 7 -20 34 0 40 -14 81 -34 102 -8 7
-12 23 -9 34 4 14 -2 28 -16 41 -11 11 -21 26 -21 34 0 22 -40 41 -51 24 -6
-11 -9 -10 -15 4 -3 9 -10 17 -16 17 -5 0 -7 -3 -5 -7 3 -5 -1 -14 -9 -20 -8
-8 -15 -9 -19 -3 -11 18 -25 11 -25 -12 0 -48 12 -68 37 -68 19 0 24 -4 19
-16 -4 -10 0 -18 13 -21 13 -3 25 -23 36 -56 9 -29 23 -59 31 -68 9 -9 13 -33
11 -60 -1 -24 3 -50 10 -57 7 -7 15 -29 18 -50 3 -20 13 -51 22 -69 9 -19 12
-37 7 -45 -14 -22 -11 -72 6 -86 11 -10 12 -15 3 -18 -7 -3 -13 -14 -13 -24 0
-10 -4 -21 -10 -25 -5 -3 -7 -12 -4 -20 3 -8 -4 -26 -15 -41 -12 -15 -24 -44
-27 -66 -4 -22 -12 -38 -20 -38 -9 0 -14 -12 -15 -32 0 -18 -3 -28 -5 -22 -3
6 -16 9 -29 6 -19 -3 -25 1 -31 22 -3 14 -12 26 -20 26 -14 0 -20 30 -6 30 4
1 18 10 31 21 17 14 21 23 13 31 -7 7 -14 4 -24 -11 -13 -22 -44 -28 -50 -10
-2 5 -18 -10 -35 -35 -18 -26 -39 -46 -47 -46 -8 0 -23 -16 -32 -35 -9 -19
-24 -35 -33 -35 -9 0 -23 -16 -34 -40 -9 -22 -21 -40 -27 -40 -14 0 -13 37 1
46 8 5 7 9 -3 15 -11 6 -15 27 -16 75 -1 65 -17 98 -34 71 -5 -9 -10 -9 -19 0
-10 10 -9 16 4 31 9 10 17 28 17 40 0 13 6 22 15 22 9 0 15 6 14 13 -4 29 2
47 15 47 8 0 16 7 18 15 6 26 103 144 119 144 9 1 28 12 43 26 23 21 25 27 14
45 -7 11 -19 18 -25 15 -7 -2 -13 0 -13 5 0 5 -12 11 -27 13 -27 4 -27 4 -5
12 12 4 22 10 22 14 0 3 3 16 6 29 4 13 2 22 -5 22 -6 0 -11 -6 -11 -13 0 -19
-40 -50 -44 -35 -19 61 -26 113 -17 116 16 5 13 29 -4 36 -8 3 -15 10 -15 15
0 6 7 8 15 5 9 -4 15 0 15 10 0 20 -14 20 -34 0 -15 -14 -16 -12 -16 22 0 21
7 45 16 55 19 21 11 39 -17 39 -14 0 -19 7 -19 25 0 16 6 25 15 25 8 0 15 6
15 14 0 19 -17 29 -25 16 -8 -13 -35 6 -35 23 0 6 -8 19 -17 30 -27 29 -28
146 -2 170 20 18 24 51 13 106 -5 25 -11 31 -33 31 -18 0 -30 8 -38 25 -6 14
-8 27 -4 30 4 2 6 18 3 35 -3 18 0 30 7 30 7 0 9 9 5 25 -3 14 -1 31 5 39 8
10 8 16 -3 25 -7 6 -16 34 -20 61 -4 27 -11 52 -16 55 -6 3 -10 17 -10 31 0
39 -27 94 -52 104 -13 5 -19 9 -15 9 10 1 -8 24 -69 86 -28 29 -54 60 -57 69
-4 9 -13 16 -22 16 -8 0 -15 5 -15 10 0 12 -13 29 -50 65 l-25 25 30 0 c17 0
64 -5 105 -11 123 -17 322 -12 435 10 268 52 484 166 692 365 70 66 128 115
131 108 5 -17 32 -15 32 2 0 8 -6 16 -12 19 -7 2 -9 8 -5 13 5 5 16 -1 25 -14
14 -19 23 -21 51 -16 l34 7 -22 18 c-14 11 -18 20 -10 24 7 5 3 14 -11 27 -28
27 -21 32 19 12 23 -11 29 -19 22 -28 -7 -8 -4 -16 10 -24 23 -15 43 -6 35 14
-3 8 -1 14 4 14 5 0 12 -9 15 -20 3 -11 10 -20 15 -20 5 0 15 -3 23 -6 18 -6
29 30 14 45 -14 14 -1 13 43 -4 30 -12 31 -14 11 -14 l-24 -1 23 -20 c18 -16
20 -20 7 -20 -10 0 -17 -7 -17 -15 0 -19 15 -19 46 1 23 16 23 17 7 30 -17 12
-17 13 -1 14 9 0 20 -4 23 -10 3 -5 12 -10 18 -10 7 0 6 4 -3 10 -12 8 -10 10
8 10 13 0 33 5 44 11 13 7 23 7 27 1 3 -5 14 -2 24 9 18 17 18 17 -3 24 -15 5
-19 12 -15 26 4 11 2 19 -5 19 -6 0 -8 -4 -5 -10 3 -5 1 -10 -5 -10 -7 0 -14
8 -17 19 -2 10 -16 24 -29 30 -13 6 -29 22 -36 35 -6 15 -22 28 -39 31 -41 9
-36 25 7 25 19 0 33 4 29 9 -3 6 7 6 27 1 17 -6 34 -8 36 -5 7 7 -9 25 -24 25
-8 0 -14 9 -14 20 0 11 5 20 10 20 6 0 10 8 10 18 1 16 1 16 14 0 23 -31 36
-21 21 15 -10 23 -19 31 -33 29 -11 -2 -23 2 -27 8 -6 10 7 14 33 11 6 -1 12
5 12 14 0 18 -3 17 38 6 43 -13 41 2 -2 19 -22 8 -39 24 -47 42 -6 15 -15 28
-20 28 -23 0 19 39 52 49 27 8 37 16 33 26 -4 9 2 18 17 23 15 6 18 11 11 16
-16 10 -15 27 1 25 6 -1 19 -1 27 0 13 1 13 2 0 12 -11 8 -8 9 14 4 25 -5 28
-4 23 15 -5 19 -2 20 32 17 22 -2 46 2 57 10 10 7 28 13 41 13 27 0 30 15 6
29 -16 9 -15 10 5 11 13 0 33 -5 44 -11 11 -6 23 -7 27 -3 24 34 128 47 151
19z m-2535 -59 c8 3 15 2 15 -3 0 -5 8 -10 18 -10 63 1 72 -3 72 -28 0 -16 7
-28 18 -31 9 -3 25 -10 34 -15 25 -13 32 -11 18 6 -6 8 -9 19 -5 25 11 18 22
10 29 -22 6 -29 7 -30 24 -15 22 20 39 22 23 3 -6 -7 -9 -21 -5 -30 8 -20 -3
-20 -38 -2 -20 11 -36 12 -62 5 -28 -8 -41 -6 -65 9 -17 10 -29 21 -26 24 3 3
-8 4 -25 2 -17 -2 -30 1 -30 7 0 7 -12 8 -32 4 -22 -4 -28 -3 -19 3 17 12 -1
24 -23 16 -8 -3 -23 1 -32 10 -15 16 -14 19 12 41 35 30 67 36 76 13 4 -11 13
-15 23 -12z m-4648 2 c-3 -8 -6 -5 -6 6 -1 11 2 17 5 13 3 -3 4 -12 1 -19z
m6373 -178 c-11 -59 -27 -127 -35 -150 -16 -46 -18 -57 -9 -48 3 3 18 44 34
89 16 46 29 76 30 65 0 -34 -31 -141 -60 -202 -39 -80 -150 -246 -212 -314
-27 -30 -57 -63 -66 -74 -53 -58 -198 -162 -287 -206 -375 -184 -779 -186
-1129 -8 -132 68 -312 216 -396 327 -14 18 -37 47 -51 65 -72 87 -171 319
-183 431 -3 31 -3 41 2 25 7 -22 13 -25 45 -22 32 2 37 0 37 -18 0 -28 -20
-48 -42 -42 -17 4 -17 1 -2 -49 61 -207 221 -436 394 -563 92 -68 195 -118
175 -86 -8 13 -3 13 31 0 14 -6 44 -14 65 -19 35 -8 38 -7 35 12 -1 11 -13 28
-25 38 -12 10 -21 26 -20 36 4 30 -12 103 -22 98 -4 -3 -8 27 -8 67 1 105 -31
162 -70 126 -11 -11 -12 -8 -6 17 3 17 12 54 18 83 6 28 17 52 23 52 7 0 15 7
18 16 4 10 14 14 26 11 13 -3 20 0 20 10 0 8 -5 11 -12 7 -10 -5 -10 -3 0 7
11 12 14 12 22 -1 8 -13 10 -13 10 2 0 14 10 17 60 15 51 -1 63 2 81 22 19 20
24 22 33 9 10 -13 13 -13 24 -2 18 20 31 17 42 -8 5 -14 9 -17 10 -8 1 25 117
71 130 51 5 -8 14 -8 35 3 20 11 31 12 36 5 3 -6 43 -12 88 -14 62 -2 85 -7
94 -19 7 -10 39 -21 77 -27 36 -6 76 -14 90 -16 14 -3 40 -6 58 -6 17 0 32 -4
32 -9 0 -4 10 -8 23 -8 17 0 19 2 7 10 -25 16 -7 19 28 5 30 -13 44 -35 22
-35 -18 0 -10 -18 16 -35 17 -11 30 -13 36 -7 6 6 20 6 39 -1 31 -12 41 -30
12 -21 -10 3 -2 -8 17 -24 29 -26 42 -30 80 -28 49 3 146 -15 117 -22 -30 -6
-12 -27 24 -27 19 0 40 -4 47 -9 25 -16 60 4 98 56 40 56 124 225 124 250 0 8
5 19 12 26 7 7 8 12 4 12 -5 0 -4 6 2 13 9 11 36 116 58 222 l8 40 4 -43 c2
-24 -6 -92 -18 -152z m-1480 170 c0 -5 -5 -10 -11 -10 -5 0 -7 5 -4 10 3 6 8
10 11 10 2 0 4 -4 4 -10z m-793 -17 c4 -11 -26 -27 -35 -19 -2 3 -2 12 2 21 6
18 27 16 33 -2z m-4048 -39 c3 -16 1 -17 -13 -5 -19 16 -21 34 -3 29 6 -3 14
-13 16 -24z m7632 -89 c-4 -25 -21 -47 -34 -42 -7 2 -36 68 -37 85 0 1 9 2 19
2 11 0 23 5 27 12 9 15 28 -29 25 -57z m-3671 35 c0 -5 -2 -10 -4 -10 -3 0 -8
5 -11 10 -3 6 -1 10 4 10 6 0 11 -4 11 -10z m50 -55 c0 -8 -4 -15 -10 -15 -5
0 -10 7 -10 15 0 8 5 15 10 15 6 0 10 -7 10 -15z m-130 -5 c0 -5 -4 -10 -10
-10 -5 0 -10 5 -10 10 0 6 5 10 10 10 6 0 10 -4 10 -10z m261 -31 c9 -17 7
-24 -10 -41 -25 -22 -57 -17 -66 12 -8 27 3 43 26 37 11 -3 19 -1 19 4 0 17
19 9 31 -12z m2449 -19 c0 -5 -9 -10 -21 -10 -11 0 -17 5 -14 10 3 6 13 10 21
10 8 0 14 -4 14 -10z m-30 -51 c0 -6 -4 -7 -10 -4 -5 3 -10 11 -10 16 0 6 5 7
10 4 6 -3 10 -11 10 -16z m40 11 c8 -5 11 -12 8 -16 -10 -9 -38 3 -38 16 0 12
10 13 30 0z m-2686 -117 c4 -13 12 -23 17 -23 5 0 9 -7 9 -15 0 -9 6 -18 14
-21 7 -3 14 -16 14 -29 0 -14 -5 -22 -12 -19 -13 5 -86 146 -86 166 0 15 36
-32 44 -59z m200 52 c8 -22 -11 -65 -28 -65 -9 0 -20 9 -26 20 -8 15 -6 23 12
40 26 24 34 25 42 5z m2444 -1 c12 -8 22 -19 22 -25 0 -16 -39 -10 -59 10 -31
31 -3 43 37 15z m-29 -40 c2 -2 2 -7 -2 -10 -3 -3 -16 2 -29 11 l-23 17 25 -7
c14 -4 27 -9 29 -11z m-55 -69 c-5 -12 -10 -13 -20 -4 -19 15 -18 19 6 19 13
0 18 -5 14 -15z m-1914 -39 c0 -7 -9 -16 -20 -19 -23 -6 -26 3 -8 21 16 16 28
15 28 -2z m1900 4 c0 -5 -2 -10 -4 -10 -3 0 -8 5 -11 10 -3 6 -1 10 4 10 6 0
11 -4 11 -10z m17 -50 c-12 -31 -27 -40 -27 -16 0 25 12 46 25 46 11 0 11 -6
2 -30z m-2311 -16 c-5 -14 -9 -15 -19 -5 -9 9 -9 14 3 21 18 11 24 6 16 -16z
m2369 -15 c11 -17 -1 -21 -15 -4 -8 9 -8 15 -2 15 6 0 14 -5 17 -11z m30 -39
c3 -5 1 -10 -4 -10 -6 0 -11 5 -11 10 0 6 2 10 4 10 3 0 8 -4 11 -10z m63 -19
c3 -8 -1 -12 -9 -9 -7 2 -15 10 -17 17 -3 8 1 12 9 9 7 -2 15 -10 17 -17z
m1187 -31 c14 -22 89 -325 111 -445 8 -44 14 -102 14 -129 l0 -49 -20 26 c-22
28 -26 63 -9 69 8 3 6 9 -4 20 -9 8 -19 40 -23 69 -3 30 -12 63 -19 74 -6 11
-15 32 -19 47 -7 29 -46 59 -46 36 0 -7 -8 0 -18 16 -10 17 -28 30 -42 32 -44
6 -54 10 -108 37 -87 46 -112 78 -79 105 13 11 16 12 48 12 18 0 19 3 9 15 -6
8 -10 20 -7 27 3 9 7 6 13 -7 4 -11 14 -30 22 -43 l15 -23 14 30 c15 31 66 61
102 61 12 0 21 6 21 15 0 17 16 20 25 5z m-561 -29 c3 -5 -1 -11 -9 -15 -9 -3
-15 0 -15 9 0 16 16 20 24 6z m416 -31 c0 -5 -4 -10 -10 -10 -5 0 -10 5 -10
10 0 6 5 10 10 10 6 0 10 -4 10 -10z m-765 -90 c3 -5 1 -10 -4 -10 -6 0 -11 5
-11 10 0 6 2 10 4 10 3 0 8 -4 11 -10z m-47 -107 c6 -19 -25 -16 -32 3 -4 11
-1 14 11 12 9 -2 18 -9 21 -15z m132 -24 c0 -5 -4 -9 -10 -9 -5 0 -10 7 -10
16 0 8 5 12 10 9 6 -3 10 -10 10 -16z m-150 -24 c0 -9 -6 -12 -15 -9 -8 4 -15
10 -15 15 0 5 7 9 15 9 8 0 15 -7 15 -15z m-222 -23 c2 -7 -2 -10 -12 -6 -9 3
-16 11 -16 16 0 13 23 5 28 -10z m47 8 c-3 -5 -1 -10 6 -10 9 0 10 -3 3 -10
-6 -6 -19 -8 -29 -4 -17 7 -17 8 1 21 21 16 27 17 19 3z m65 -22 c0 -13 -23
-5 -28 10 -2 7 2 10 12 6 9 -3 16 -11 16 -16z m30 -38 c0 -5 -2 -10 -4 -10 -3
0 -8 5 -11 10 -3 6 -1 10 4 10 6 0 11 -4 11 -10z m210 -11 c0 -6 -4 -7 -10 -4
-5 3 -10 11 -10 16 0 6 5 7 10 4 6 -3 10 -11 10 -16z m124 4 c-5 -5 -12 -12
-16 -18 -4 -6 -8 -2 -8 8 0 9 7 17 17 17 9 0 12 -3 7 -7z m-189 -83 c10 -11
16 -23 13 -26 -7 -6 -48 27 -48 38 0 14 17 8 35 -12z m205 10 c0 -5 -4 -10
-10 -10 -5 0 -10 5 -10 10 0 6 5 10 10 10 6 0 10 -4 10 -10z m240 -178 c12
-69 5 -96 -16 -68 -7 10 -10 24 -8 31 3 7 1 16 -5 20 -12 7 -15 126 -4 165 6
20 9 15 15 -30 4 -30 13 -83 18 -118z m-3416 140 c4 -10 22 -25 41 -32 19 -8
35 -21 35 -29 0 -12 -3 -12 -12 -3 -7 7 -22 12 -35 12 -13 0 -23 5 -23 10 0 6
-9 10 -20 10 -11 0 -20 -5 -20 -11 0 -5 -4 -8 -10 -4 -15 9 11 65 31 65 4 0
10 -8 13 -18z m2581 -62 c3 -5 2 -10 -4 -10 -5 0 -13 5 -16 10 -3 6 -2 10 4
10 5 0 13 -4 16 -10z m-2559 -22 c3 -24 -8 -23 -24 3 -12 18 -11 20 4 17 9 -1
18 -11 20 -20z m2639 -20 l16 -33 -21 24 c-11 13 -20 27 -20 32 0 18 10 8 25
-23z m110 12 c14 -16 15 -20 4 -20 -16 0 -39 19 -39 32 0 14 16 9 35 -12z
m-2718 -9 c1 -11 -6 -21 -18 -24 -22 -6 -23 -3 -7 23 16 25 23 25 25 1z m2811
-47 c-10 -10 -28 6 -28 24 0 15 1 15 17 -1 9 -9 14 -19 11 -23z m1145 -18 c3
-19 2 -50 -3 -70 -4 -20 -4 -39 1 -42 15 -9 10 -34 -6 -34 -19 0 -19 -9 0 -31
13 -13 14 -28 9 -70 -5 -30 -10 -45 -12 -34 -2 10 -10 28 -18 40 -13 20 -11
126 3 149 3 5 1 6 -4 3 -17 -11 -23 33 -10 80 13 52 32 56 40 9z m-1250 12
c21 -13 57 -47 57 -55 0 -3 -13 6 -29 19 -15 12 -37 28 -47 35 -25 16 -10 16
19 1z m-68 -28 c3 -5 1 -10 -4 -10 -6 0 -11 5 -11 10 0 6 2 10 4 10 3 0 8 -4
11 -10z m-88 -55 c-1 -1 -19 0 -39 2 -33 5 -36 7 -26 23 11 17 13 17 40 -3 15
-11 27 -21 25 -22z m-198 -96 c-14 -8 -39 -1 -39 11 0 14 24 18 38 7 10 -8 10
-12 1 -18z m1541 -303 c0 -3 -4 -8 -10 -11 -5 -3 -10 -1 -10 4 0 6 5 11 10 11
6 0 10 -2 10 -4z m-254 -68 c13 -21 32 -38 41 -38 26 0 0 -22 -31 -25 -14 -2
-30 -6 -36 -10 -6 -4 -22 1 -35 9 -19 12 -25 25 -25 51 0 24 5 35 15 35 8 0
15 4 15 8 0 23 35 4 56 -30z m-367 -22 c21 -25 -9 -31 -32 -7 l-21 21 21 0
c11 0 26 -6 32 -14z m481 -267 c0 -6 -4 -7 -10 -4 -5 3 -10 11 -10 16 0 6 5 7
10 4 6 -3 10 -11 10 -16z m-4576 -454 c-4 -8 -10 -12 -15 -9 -14 8 -10 24 6
24 9 0 12 -6 9 -15z m1387 -252 c13 -35 5 -80 -20 -114 -12 -16 -21 -32 -21
-37 0 -5 -7 -15 -15 -22 -18 -15 -22 -6 -29 55 -4 40 13 94 42 128 21 24 31
21 43 -10z m921 -335 c-7 -7 -12 -8 -12 -2 0 14 12 26 19 19 2 -3 -1 -11 -7
-17z m-3092 -58 c0 -5 -4 -10 -10 -10 -5 0 -10 5 -10 10 0 6 5 10 10 10 6 0
10 -4 10 -10z m1622 -61 c14 -8 27 -38 16 -39 -2 0 -49 -7 -106 -14 -120 -16
-142 -13 -142 19 0 48 25 58 124 51 49 -4 97 -11 108 -17z m-292 -180 c0 -5
-9 -9 -20 -9 -22 0 -27 16 -7 23 15 5 27 -1 27 -14z m-65 -19 c-5 -8 -11 -8
-17 -2 -6 6 -7 16 -3 22 5 8 11 8 17 2 6 -6 7 -16 3 -22z m663 -56 c-4 -38 -4
-38 -15 -14 -6 14 -14 41 -18 60 l-7 35 22 -21 c16 -16 21 -30 18 -60z m-223
-22 c-11 -11 -27 17 -20 35 6 16 8 16 16 -6 5 -13 7 -26 4 -29z m-71 -29 c6
-49 1 -67 -14 -43 -12 19 -13 90 -1 90 4 0 11 -21 15 -47z m-184 -257 c0 -3
-4 -8 -10 -11 -5 -3 -10 -1 -10 4 0 6 5 11 10 11 6 0 10 -2 10 -4z m-145
-1146 c3 -5 1 -10 -4 -10 -6 0 -11 5 -11 10 0 6 2 10 4 10 3 0 8 -4 11 -10z
m-5 -42 c0 -16 -3 -19 -11 -11 -6 6 -8 16 -5 22 11 17 16 13 16 -11z m150 -8
c0 -5 -4 -10 -10 -10 -5 0 -7 -8 -3 -17 4 -14 3 -15 -6 -7 -6 6 -9 18 -5 27 7
18 24 23 24 7z m90 -124 c0 -11 -19 -15 -25 -6 -3 5 1 10 9 10 9 0 16 -2 16
-4z m110 -56 c0 -5 -4 -10 -10 -10 -5 0 -10 5 -10 10 0 6 5 10 10 10 6 0 10
-4 10 -10z m-80 -660 c0 -5 -2 -10 -4 -10 -3 0 -8 5 -11 10 -3 6 -1 10 4 10 6
0 11 -4 11 -10z m504 -295 c-4 -8 -11 -15 -16 -15 -6 0 -5 6 2 15 7 8 14 15
16 15 2 0 1 -7 -2 -15z m38 -297 c-7 -27 -19 -22 -25 9 -3 16 0 31 6 35 14 9
26 -19 19 -44z m1488 -413 c0 -1 -11 -5 -25 -7 -16 -3 -25 -1 -25 7 0 8 9 10
25 7 14 -2 25 -6 25 -7z m-317 -282 c3 -5 2 -25 -2 -45 -4 -28 -9 -35 -19 -29
-9 6 -11 19 -7 45 7 34 18 46 28 29z m-253 -134 c0 -10 -4 -19 -8 -19 -15 0
-31 22 -25 36 7 18 33 5 33 -17z m-124 -116 c-10 -10 -19 5 -10 18 6 11 8 11
12 0 2 -7 1 -15 -2 -18z m-16 -53 c0 -5 -4 -10 -10 -10 -5 0 -10 5 -10 10 0 6
5 10 10 10 6 0 10 -4 10 -10z m-760 -244 c0 -19 -33 -26 -48 -10 -9 10 -8 14
6 17 32 9 42 7 42 -7z m172 -71 c0 -5 -5 -11 -11 -13 -6 -2 -11 4 -11 13 0 9
5 15 11 13 6 -2 11 -8 11 -13z"/>
<path d="M14403 20160 c6 -11 15 -20 19 -20 12 0 -3 28 -18 34 -11 4 -12 2 -1
-14z"/>
<path d="M15276 16112 c-3 -6 -1 -14 5 -17 14 -9 20 -2 10 14 -6 8 -11 9 -15
3z"/>
<path d="M15315 15950 l-20 -8 20 -7 c11 -3 35 -14 53 -22 24 -12 35 -14 44
-5 12 12 -1 21 -35 26 -8 1 -21 7 -28 13 -8 6 -23 7 -34 3z"/>
<path d="M15340 15815 c1 -17 29 -49 37 -41 4 3 -3 16 -15 29 -12 12 -22 17
-22 12z"/>
<path d="M15640 15285 c7 -9 15 -13 17 -11 7 7 -7 26 -19 26 -6 0 -6 -6 2 -15z"/>
<path d="M13775 15360 c-4 -6 5 -10 20 -10 15 0 24 4 20 10 -3 6 -12 10 -20
10 -8 0 -17 -4 -20 -10z"/>
<path d="M13160 15180 c0 -5 5 -10 10 -10 6 0 10 5 10 10 0 6 -4 10 -10 10 -5
0 -10 -4 -10 -10z"/>
<path d="M13006 15154 c-9 -8 -16 -23 -16 -33 0 -9 -5 -22 -12 -29 -9 -9 -8
-12 5 -12 11 0 20 14 27 40 7 25 15 38 22 34 7 -4 8 -3 4 4 -9 15 -12 15 -30
-4z"/>
<path d="M13140 15150 c0 -5 5 -10 10 -10 6 0 10 5 10 10 0 6 -4 10 -10 10 -5
0 -10 -4 -10 -10z"/>
<path d="M13210 15035 c-15 -18 -13 -21 23 -30 17 -5 27 -3 27 4 0 6 -4 11
-10 11 -5 0 -10 7 -10 15 0 19 -14 19 -30 0z"/>
<path d="M15580 14411 c0 -11 5 -23 10 -26 6 -3 10 1 10 9 0 9 8 16 18 17 14
0 14 2 -3 9 -30 13 -35 12 -35 -9z"/>
<path d="M15604 14355 c11 -8 22 -12 25 -9 6 6 -19 24 -34 24 -5 -1 -1 -7 9
-15z"/>
<path d="M15600 14280 c0 -5 5 -10 11 -10 5 0 7 5 4 10 -3 6 -8 10 -11 10 -2
0 -4 -4 -4 -10z"/>
<path d="M15675 14200 c3 -5 8 -10 11 -10 2 0 4 5 4 10 0 6 -5 10 -11 10 -5 0
-7 -4 -4 -10z"/>
<path d="M15545 14120 c10 -11 20 -20 22 -20 2 0 -2 9 -9 20 -7 11 -17 20 -22
20 -5 0 -1 -9 9 -20z"/>
<path d="M15710 14126 c0 -2 7 -7 16 -10 8 -3 12 -2 9 4 -6 10 -25 14 -25 6z"/>
<path d="M15640 14079 c0 -18 2 -19 15 -9 8 7 15 16 15 21 0 5 -7 9 -15 9 -9
0 -15 -9 -15 -21z"/>
<path d="M15810 14070 c0 -5 5 -10 11 -10 5 0 7 5 4 10 -3 6 -8 10 -11 10 -2
0 -4 -4 -4 -10z"/>
<path d="M15946 14045 c4 -8 10 -15 15 -15 5 0 9 7 9 15 0 8 -7 15 -15 15 -9
0 -12 -6 -9 -15z"/>
<path d="M15866 14019 c23 -24 25 -29 10 -29 -25 0 -14 -24 12 -28 12 -2 22
-10 22 -19 0 -12 -7 -14 -36 -9 -33 7 -35 6 -25 -12 14 -26 61 -35 83 -15 10
9 15 20 12 25 -3 5 2 16 12 24 16 14 17 15 2 10 -9 -3 -27 4 -40 15 l-23 20
23 -6 c17 -5 22 -2 22 14 0 25 -9 31 -60 35 l-41 3 27 -28z"/>
<path d="M16090 14036 c0 -16 18 -31 27 -22 3 3 -2 12 -11 21 -14 14 -16 14
-16 1z"/>
<path d="M15662 14004 c10 -10 20 -15 24 -12 3 4 -5 12 -18 18 -22 12 -22 12
-6 -6z"/>
<path d="M15830 14013 c1 -18 18 -35 24 -24 4 6 4 16 1 21 -7 12 -25 13 -25 3z"/>
<path d="M15645 13920 c-3 -5 -1 -10 4 -10 6 0 11 5 11 10 0 6 -2 10 -4 10 -3
0 -8 -4 -11 -10z"/>
<path d="M15962 13908 c3 -7 13 -15 24 -17 16 -3 17 -1 5 13 -16 19 -34 21
-29 4z"/>
<path d="M15567 13902 c-3 -4 3 -13 14 -20 10 -7 19 -8 19 -3 0 13 -28 33 -33
23z"/>
<path d="M15691 13891 c-12 -8 -12 -13 3 -35 9 -14 22 -26 28 -26 6 0 3 10 -8
21 -14 16 -15 23 -6 26 13 5 17 23 5 23 -5 0 -14 -4 -22 -9z"/>
<path d="M15387 13883 c-13 -12 -7 -33 8 -33 8 0 15 9 15 20 0 20 -11 26 -23
13z"/>
<path d="M15940 13875 c0 -2 9 -9 20 -15 16 -9 18 -8 14 5 -5 13 -34 22 -34
10z"/>
<path d="M15345 13838 c6 -14 2 -18 -16 -18 -18 0 -20 -3 -11 -12 10 -9 16 -8
29 5 14 14 15 19 4 29 -10 11 -11 10 -6 -4z"/>
<path d="M15437 13834 c-8 -14 8 -37 22 -33 8 3 8 10 -2 23 -8 11 -17 15 -20
10z"/>
<path d="M15978 13813 c7 -3 16 -2 19 1 4 3 -2 6 -13 5 -11 0 -14 -3 -6 -6z"/>
<path d="M15669 13740 c13 -11 28 -20 35 -20 6 1 0 10 -13 20 -13 11 -28 20
-35 20 -6 -1 0 -10 13 -20z"/>
<path d="M15540 13534 c0 -8 5 -12 10 -9 6 4 8 11 5 16 -9 14 -15 11 -15 -7z"/>
<path d="M15433 13526 c1 -1 15 -12 31 -26 27 -23 28 -23 17 -3 -8 16 -8 22 2
26 6 2 -3 4 -20 4 -18 0 -32 -1 -30 -1z"/>
<path d="M15345 13510 c3 -5 10 -10 16 -10 5 0 9 5 9 10 0 6 -7 10 -16 10 -8
0 -12 -4 -9 -10z"/>
<path d="M15220 13450 c0 -5 5 -10 10 -10 6 0 10 5 10 10 0 6 -4 10 -10 10 -5
0 -10 -4 -10 -10z"/>
<path d="M15400 13370 c0 -22 16 -43 30 -38 8 2 5 11 -9 28 -14 17 -20 20 -21
10z"/>
<path d="M15220 13356 c0 -9 5 -16 10 -16 6 0 10 4 10 9 0 6 -4 13 -10 16 -5
3 -10 -1 -10 -9z"/>
<path d="M15170 13309 c0 -5 5 -7 10 -4 6 3 10 8 10 11 0 2 -4 4 -10 4 -5 0
-10 -5 -10 -11z"/>
<path d="M15270 13290 c6 -11 17 -20 25 -20 20 0 19 10 -2 26 -26 19 -35 17
-23 -6z"/>
<path d="M15320 13302 c0 -12 19 -26 26 -19 2 2 -2 10 -11 17 -9 8 -15 8 -15
2z"/>
<path d="M15360 13290 c0 -5 7 -10 16 -10 8 0 12 5 9 10 -3 6 -10 10 -16 10
-5 0 -9 -4 -9 -10z"/>
<path d="M14237 12409 c-9 -6 -15 -15 -11 -20 3 -5 1 -16 -5 -23 -9 -10 -3
-20 25 -41 39 -30 52 -28 34 4 -7 14 -7 21 0 21 15 0 12 22 -8 47 -13 17 -21
20 -35 12z"/>
<path d="M14465 12350 c3 -5 10 -10 16 -10 5 0 9 5 9 10 0 6 -7 10 -16 10 -8
0 -12 -4 -9 -10z"/>
<path d="M14325 12230 c3 -5 8 -10 11 -10 2 0 4 5 4 10 0 6 -5 10 -11 10 -5 0
-7 -4 -4 -10z"/>
<path d="M14380 12231 c0 -5 5 -13 10 -16 6 -3 10 -2 10 4 0 5 -4 13 -10 16
-5 3 -10 2 -10 -4z"/>
<path d="M14360 12166 c0 -9 5 -16 10 -16 6 0 10 4 10 9 0 6 -4 13 -10 16 -5
3 -10 -1 -10 -9z"/>
<path d="M14340 12125 c0 -8 7 -15 15 -15 9 0 12 6 9 15 -4 8 -10 15 -15 15
-5 0 -9 -7 -9 -15z"/>
<path d="M14378 12074 c4 -22 6 -24 14 -10 9 16 3 36 -11 36 -5 0 -6 -12 -3
-26z"/>
<path d="M14377 11954 c-4 -4 -7 -14 -7 -23 0 -11 3 -12 11 -4 6 6 10 16 7 23
-2 6 -7 8 -11 4z"/>
<path d="M14530 11920 c0 -5 5 -10 10 -10 6 0 10 5 10 10 0 6 -4 10 -10 10 -5
0 -10 -4 -10 -10z"/>
<path d="M14480 11900 c0 -5 7 -10 15 -10 8 0 15 5 15 10 0 6 -7 10 -15 10 -8
0 -15 -4 -15 -10z"/>
<path d="M14478 11863 c7 -3 16 -2 19 1 4 3 -2 6 -13 5 -11 0 -14 -3 -6 -6z"/>
<path d="M14435 11569 c-10 -15 3 -25 16 -12 7 7 7 13 1 17 -6 3 -14 1 -17 -5z"/>
<path d="M16565 13850 c-3 -5 1 -10 9 -10 9 0 16 5 16 10 0 6 -4 10 -9 10 -6
0 -13 -4 -16 -10z"/>
<path d="M11200 20230 c-11 -8 -7 -9 15 -4 37 8 45 14 19 14 -10 0 -26 -5 -34
-10z"/>
<path d="M11148 20213 c7 -3 16 -2 19 1 4 3 -2 6 -13 5 -11 0 -14 -3 -6 -6z"/>
<path d="M10090 19660 c0 -5 5 -10 10 -10 6 0 10 5 10 10 0 6 -4 10 -10 10 -5
0 -10 -4 -10 -10z"/>
<path d="M16345 18697 c10 -15 20 -25 23 -22 3 3 -5 16 -17 28 l-23 22 17 -28z"/>
<path d="M16370 18481 c0 -6 4 -13 10 -16 6 -3 7 1 4 9 -7 18 -14 21 -14 7z"/>
<path d="M16790 17863 c0 -6 8 -17 18 -24 16 -13 16 -13 2 6 -8 11 -16 22 -17
24 -2 2 -3 0 -3 -6z"/>
<path d="M10580 16587 c14 -8 27 -12 30 -10 7 6 -23 23 -40 23 -8 0 -4 -6 10
-13z"/>
<path d="M10335 16510 c9 -36 27 -70 36 -70 10 0 -8 45 -29 75 -13 19 -14 19
-7 -5z"/>
<path d="M8510 16470 c0 -5 5 -10 10 -10 6 0 10 5 10 10 0 6 -4 10 -10 10 -5
0 -10 -4 -10 -10z"/>
<path d="M10200 16440 c0 -5 5 -10 10 -10 6 0 10 5 10 10 0 6 -4 10 -10 10 -5
0 -10 -4 -10 -10z"/>
<path d="M11570 16410 c0 -5 5 -10 11 -10 5 0 7 5 4 10 -3 6 -8 10 -11 10 -2
0 -4 -4 -4 -10z"/>
<path d="M11630 16390 c0 -5 5 -10 11 -10 5 0 7 5 4 10 -3 6 -8 10 -11 10 -2
0 -4 -4 -4 -10z"/>
<path d="M13375 16370 c3 -5 8 -10 11 -10 2 0 4 5 4 10 0 6 -5 10 -11 10 -5 0
-7 -4 -4 -10z"/>
<path d="M11425 16360 c3 -5 11 -10 16 -10 6 0 7 5 4 10 -3 6 -11 10 -16 10
-6 0 -7 -4 -4 -10z"/>
<path d="M13680 16236 c0 -9 30 -14 35 -6 4 6 -3 10 -14 10 -12 0 -21 -2 -21
-4z"/>
<path d="M13748 16223 c6 -2 18 -2 25 0 6 3 1 5 -13 5 -14 0 -19 -2 -12 -5z"/>
<path d="M13808 16213 c12 -2 30 -2 40 0 9 3 -1 5 -23 4 -22 0 -30 -2 -17 -4z"/>
<path d="M13700 16190 c-23 -7 -23 -8 -3 -9 12 -1 25 4 28 9 3 6 5 10 3 9 -2
-1 -14 -5 -28 -9z"/>
<path d="M13463 16123 c9 -2 23 -2 30 0 6 3 -1 5 -18 5 -16 0 -22 -2 -12 -5z"/>
<path d="M10660 16081 c0 -5 7 -12 16 -15 24 -9 27 -7 10 9 -17 17 -26 19 -26
6z"/>
<path d="M10198 16067 c-16 -6 -28 -15 -28 -19 0 -7 55 16 69 28 7 7 -13 2
-41 -9z"/>
<path d="M10421 16059 c-21 -22 -78 -24 -74 -2 2 7 -4 10 -12 6 -13 -4 -13 -8
-3 -21 8 -9 -1 -7 -19 6 -17 12 -34 18 -37 13 -3 -5 -18 -12 -33 -16 -16 -4
-47 -22 -70 -41 -23 -19 -48 -34 -56 -34 -14 0 -32 -28 -23 -37 2 -2 21 3 41
12 21 8 40 13 43 10 3 -2 -4 -8 -14 -12 -10 -3 -21 -9 -24 -13 -3 -3 -17 -13
-32 -23 -24 -15 -28 -15 -28 -2 0 21 -17 19 -30 -5 -6 -11 -17 -20 -25 -20 -8
0 -15 -9 -15 -19 0 -33 -11 -51 -31 -51 -10 0 -19 -3 -19 -8 0 -4 -16 -16 -35
-26 -34 -19 -36 -19 -55 -1 -16 14 -23 16 -32 7 -9 -9 -7 -12 10 -12 16 0 20
-4 15 -17 -4 -10 -12 -22 -20 -26 -17 -10 -17 -30 0 -22 6 4 5 1 -4 -7 -9 -7
-14 -18 -12 -25 5 -14 -46 -42 -67 -36 -9 3 -11 1 -5 -4 21 -17 16 -42 -11
-49 -14 -4 -34 -20 -45 -37 -10 -17 -28 -37 -41 -44 -21 -13 -19 -14 22 -7 25
4 59 7 75 6 23 -1 26 1 15 8 -10 7 -11 12 -4 18 6 4 14 16 17 26 4 10 10 16
14 12 12 -12 12 -60 0 -68 -8 -5 -6 -8 6 -8 9 0 17 6 17 14 0 9 18 16 55 21
51 6 69 25 25 25 -13 0 -17 5 -14 14 4 12 21 14 77 10 40 -3 80 -7 90 -10 11
-4 17 0 17 10 0 10 -9 16 -22 16 -13 0 -30 5 -38 10 -11 7 -7 10 17 10 17 0
35 -5 39 -11 3 -6 17 -9 30 -6 13 2 24 1 24 -3 0 -4 11 -5 25 -2 14 2 25 0 25
-6 0 -11 -33 -22 -67 -22 -13 0 -23 -4 -23 -10 0 -5 -7 -10 -16 -10 -19 0
-151 -65 -175 -86 -8 -8 -20 -14 -26 -14 -6 0 -28 -17 -49 -37 -22 -21 -48
-44 -59 -51 -20 -13 -18 -13 33 4 16 5 16 5 0 -5 -32 -21 -139 -174 -184 -263
-26 -52 -46 -107 -49 -135 -4 -44 -25 -86 -25 -52 0 27 -17 41 -39 34 -29 -9
-27 -41 3 -49 18 -4 23 -11 19 -26 -4 -14 -11 -19 -23 -15 -9 3 -23 -1 -29 -9
-8 -9 -24 -13 -43 -11 -17 2 -41 -1 -52 -7 -12 -7 -41 -10 -65 -9 -30 2 -41
-1 -36 -9 4 -6 9 -9 12 -6 3 2 19 -4 35 -14 25 -15 35 -16 52 -7 11 7 23 15
26 19 3 3 41 8 85 10 l80 4 6 69 c10 114 70 258 147 354 141 176 321 271 617
326 246 45 495 43 755 -6 311 -60 590 -216 726 -406 41 -56 125 -219 130 -251
4 -21 11 -24 33 -17 l21 6 -20 39 c-11 22 -20 45 -20 52 0 28 -74 166 -126
235 -56 76 -156 165 -234 210 -25 15 -47 29 -50 33 -8 10 -254 110 -272 110
-9 0 -20 5 -23 10 -4 6 -10 8 -15 5 -7 -4 -54 7 -143 35 -16 5 -36 6 -45 3
-13 -4 -14 -3 -3 5 9 7 10 12 2 16 -6 4 -11 11 -11 15 0 9 54 -7 78 -22 6 -5
12 -4 12 1 0 5 -34 32 -77 60 -51 35 -69 52 -55 52 11 0 34 -11 50 -25 33 -28
47 -32 39 -11 -8 20 84 -5 119 -33 29 -23 57 -30 36 -9 -17 17 -15 33 3 18 8
-7 15 -19 15 -26 0 -17 27 -7 34 12 3 8 2 13 -3 10 -5 -3 -14 1 -21 9 -9 11
-5 15 24 21 33 6 42 24 11 24 -15 0 -79 60 -71 67 9 10 69 -17 83 -37 8 -11
21 -20 29 -20 8 0 14 -8 14 -18 0 -20 36 -46 51 -36 5 3 21 -1 34 -10 27 -18
45 -21 45 -7 0 10 -55 34 -82 36 -23 2 -44 22 -35 32 4 4 13 1 19 -5 7 -7 16
-12 21 -12 5 0 -7 15 -27 33 -45 41 -45 52 -3 42 17 -4 46 -9 64 -11 18 -2 45
-9 60 -17 15 -7 38 -11 51 -9 20 3 21 6 10 20 -9 12 -3 10 25 -6 20 -12 37
-18 37 -14 0 8 -57 48 -82 58 -10 3 -18 12 -18 20 0 8 -5 14 -11 14 -5 0 -7
-4 -4 -10 3 -5 -1 -10 -10 -10 -10 0 -15 6 -12 13 3 8 0 14 -6 15 -7 1 -32 5
-57 8 -54 7 -77 24 -35 24 25 1 27 2 13 10 -24 15 -74 21 -150 21 -40 -1 -70
4 -74 11 -5 8 2 9 23 5 24 -5 37 -1 56 17 l25 23 -47 12 c-27 7 -65 9 -89 5
-51 -8 -86 0 -109 26 -23 24 -102 43 -120 29 -6 -6 -69 -11 -139 -12 -92 -2
-129 -5 -132 -14 -5 -17 -20 -16 -38 1 -20 20 -18 23 18 35 17 6 29 14 25 17
-6 6 -64 -12 -107 -33 -20 -10 -27 -10 -40 2 -11 10 -20 11 -33 3 -26 -14 -36
1 -13 18 17 12 17 14 3 14 -9 0 -25 -9 -36 -21z m-30 -49 c-12 -11 -28 -17
-33 -14 -5 4 1 12 14 19 35 20 46 17 19 -5z m452 5 c10 -4 35 -2 56 5 20 6 50
10 66 8 28 -4 27 -5 -12 -12 -25 -5 -40 -13 -36 -19 4 -6 -8 -8 -35 -4 -26 3
-42 1 -42 -5 0 -7 -24 -8 -71 -4 -50 5 -69 4 -64 -3 3 -6 -1 -11 -10 -11 -9 0
-23 -6 -31 -14 -12 -13 -18 -12 -45 1 -22 11 -46 14 -80 10 -60 -7 -66 8 -6
17 23 3 60 9 82 12 21 4 46 13 53 21 11 11 33 13 86 10 39 -3 79 -8 89 -12z
m-433 -37 c0 -7 -11 -18 -23 -24 -21 -10 -23 -8 -19 13 5 24 42 34 42 11z
m775 2 c3 -5 -1 -10 -10 -10 -9 0 -13 5 -10 10 3 6 8 10 10 10 2 0 7 -4 10
-10z m42 -6 c-3 -3 -12 -4 -19 -1 -8 3 -5 6 6 6 11 1 17 -2 13 -5z m-888 -8
c-2 -2 -15 -9 -29 -16 -23 -12 -24 -12 -11 3 7 10 20 17 29 17 8 0 13 -2 11
-4z m131 0 c0 -11 -19 -15 -25 -6 -3 5 1 10 9 10 9 0 16 -2 16 -4z m-210 -15
c0 -5 -7 -11 -14 -14 -10 -4 -13 -1 -9 9 6 15 23 19 23 5z m-50 -31 c-8 -5
-19 -10 -25 -10 -5 0 -3 5 5 10 8 5 20 10 25 10 6 0 3 -5 -5 -10z m1130 -30
c12 -7 10 -9 -8 -7 -12 0 -22 5 -22 9 0 11 12 10 30 -2z m-1260 -24 c0 -13
-29 -31 -37 -22 -4 4 25 36 33 36 2 0 4 -6 4 -14z m1360 -51 c31 -18 7 -18
-40 0 -31 12 -32 14 -10 14 14 0 36 -6 50 -14z m-583 -28 c4 -7 0 -8 -11 -4
-10 4 -24 7 -32 7 -8 0 -14 4 -14 9 0 11 49 1 57 -12z m-480 -23 c-3 -3 -12
-4 -19 -1 -8 3 -5 6 6 6 11 1 17 -2 13 -5z m-250 -10 c-3 -3 -12 -4 -19 -1 -8
3 -5 6 6 6 11 1 17 -2 13 -5z m108 -4 c-3 -5 -17 -10 -31 -10 -14 0 -22 4 -19
10 3 6 17 10 31 10 14 0 22 -4 19 -10z m478 3 c-7 -2 -19 -2 -25 0 -7 3 -2 5
12 5 14 0 19 -2 13 -5z m-228 -33 c-7 -12 -62 -12 -90 0 -14 6 -4 9 38 9 36 1
56 -3 52 -9z m43 -26 c6 -10 23 -17 43 -18 19 0 36 -4 39 -7 3 -3 19 -10 35
-16 28 -9 25 -10 -35 -16 -64 -7 -156 12 -132 27 6 3 17 3 26 0 12 -5 15 -2
10 10 -3 9 -10 16 -16 16 -5 0 -6 5 -3 10 9 15 23 12 33 -6z m245 -22 c19 -17
22 -32 7 -32 -13 0 -50 37 -50 51 0 11 15 4 43 -19z m-759 3 c-10 -8 -30 -15
-43 -15 -43 0 0 25 48 29 10 1 9 -4 -5 -14z m156 -5 c0 -5 -15 -10 -32 -9 -28
0 -30 2 -13 9 28 12 45 12 45 0z m123 -9 c33 -12 57 -15 59 -10 5 14 100 -3
105 -17 2 -7 -22 -13 -69 -17 -62 -4 -76 -2 -90 13 -9 10 -31 21 -48 25 -16 4
-30 11 -30 16 0 13 10 12 73 -10z m602 -21 c3 -4 -8 -3 -25 3 -16 6 -31 16
-34 23 -5 13 50 -11 59 -26z m-990 11 c-3 -6 -14 -11 -23 -11 -15 1 -15 2 2
15 21 16 32 13 21 -4z m-55 -5 c0 -2 -8 -10 -17 -17 -16 -13 -17 -12 -4 4 13
16 21 21 21 13z m363 -34 c15 -2 27 0 27 6 0 6 9 8 20 5 27 -7 25 -19 -2 -27
-41 -10 -65 -6 -89 16 -20 18 -21 20 -4 13 11 -4 32 -10 48 -13z m-343 -2 c0
-5 -4 -10 -10 -10 -5 0 -10 5 -10 10 0 6 5 10 10 10 6 0 10 -4 10 -10z"/>
<path d="M10760 16070 c-13 -8 -13 -10 2 -10 9 0 20 5 23 10 8 13 -5 13 -25 0z"/>
<path d="M11018 16053 c7 -3 16 -2 19 1 4 3 -2 6 -13 5 -11 0 -14 -3 -6 -6z"/>
<path d="M11053 16023 c9 -2 25 -2 35 0 9 3 1 5 -18 5 -19 0 -27 -2 -17 -5z"/>
<path d="M13154 15929 c-31 -33 -12 -28 36 10 18 15 21 21 9 21 -8 0 -28 -14
-45 -31z"/>
<path d="M9960 15905 c-12 -14 -12 -18 1 -25 10 -7 15 -5 17 5 6 28 -3 38 -18
20z"/>
<path d="M11485 15880 c3 -5 16 -10 28 -10 18 0 19 2 7 10 -20 13 -43 13 -35
0z"/>
<path d="M9913 15847 c-11 -12 -24 -33 -28 -45 -6 -20 -4 -23 12 -20 10 2 18
12 19 25 1 13 7 30 14 38 21 25 5 27 -17 2z"/>
<path d="M11585 15850 c8 -13 45 -13 65 0 11 7 3 10 -28 10 -26 0 -41 -4 -37
-10z"/>
<path d="M13115 15760 c-3 -5 -1 -10 4 -10 6 0 11 5 11 10 0 6 -2 10 -4 10 -3
0 -8 -4 -11 -10z"/>
<path d="M13165 15750 c-3 -5 -1 -10 4 -10 6 0 11 5 11 10 0 6 -2 10 -4 10 -3
0 -8 -4 -11 -10z"/>
<path d="M13126 15673 c-3 -21 -5 -65 -4 -98 l1 -60 7 70 c4 39 10 82 15 98 4
16 3 27 -3 27 -5 0 -12 -17 -16 -37z"/>
<path d="M11570 15696 c0 -2 8 -10 18 -17 15 -13 16 -12 3 4 -13 16 -21 21
-21 13z"/>
<path d="M9770 15664 c0 -8 5 -12 10 -9 6 4 8 11 5 16 -9 14 -15 11 -15 -7z"/>
<path d="M13160 15664 c0 -8 5 -12 10 -9 6 3 10 10 10 16 0 5 -4 9 -10 9 -5 0
-10 -7 -10 -16z"/>
<path d="M11276 15631 c-3 -5 1 -11 9 -14 9 -4 12 -1 8 9 -6 16 -10 17 -17 5z"/>
<path d="M11388 15633 c7 -3 16 -2 19 1 4 3 -2 6 -13 5 -11 0 -14 -3 -6 -6z"/>
<path d="M11430 15620 c0 -6 7 -10 15 -10 8 0 15 2 15 4 0 2 -7 6 -15 10 -8 3
-15 1 -15 -4z"/>
<path d="M11470 15588 c0 -8 7 -21 15 -28 19 -16 19 -1 0 24 -12 16 -15 17
-15 4z"/>
<path d="M11674 15478 c3 -7 9 -21 12 -30 4 -10 10 -18 15 -18 5 0 3 14 -6 30
-15 28 -33 44 -21 18z"/>
<path d="M9775 15430 c3 -5 8 -10 11 -10 2 0 4 5 4 10 0 6 -5 10 -11 10 -5 0
-7 -4 -4 -10z"/>
<path d="M16950 15031 c0 -5 5 -13 10 -16 6 -3 10 -2 10 4 0 5 -4 13 -10 16
-5 3 -10 2 -10 -4z"/>
<path d="M11194 14955 c-32 -30 -15 -28 -279 -26 -268 2 -344 -11 -574 -103
-91 -36 -170 -66 -177 -66 -6 0 -23 -9 -38 -21 -14 -11 -30 -18 -35 -15 -5 3
-20 -3 -34 -14 -14 -11 -32 -20 -40 -20 -22 0 -29 -16 -22 -48 10 -46 92 -75
134 -48 9 6 16 6 18 0 5 -15 66 -4 80 14 11 13 13 13 19 -1 6 -17 44 -23 57
-10 6 6 31 10 77 15 8 1 44 0 79 0 51 -2 62 -5 57 -17 -6 -17 26 -38 48 -29 9
3 19 -3 26 -16 8 -15 18 -20 31 -17 10 3 22 1 25 -4 3 -5 23 -9 45 -9 30 0 39
-4 39 -17 0 -15 1 -15 14 2 13 18 13 18 24 -1 6 -10 16 -19 24 -19 78 -3 219
-19 224 -26 7 -11 -64 -79 -83 -79 -7 0 -18 -11 -23 -24 -5 -13 -14 -26 -20
-28 -15 -5 -1 -38 16 -38 8 0 14 -5 14 -11 0 -6 9 -8 23 -3 38 12 110 11 136
-2 17 -9 30 -10 43 -3 12 7 25 6 40 -2 17 -9 24 -9 33 4 6 8 18 15 26 14 33
-3 119 16 130 29 16 20 36 17 42 -6 7 -28 33 -16 46 20 6 19 19 32 36 36 14 3
25 11 24 18 -4 26 14 76 27 76 8 0 14 7 14 15 0 8 11 25 25 37 14 12 25 28 25
35 0 21 -30 75 -58 106 -14 15 -22 27 -16 27 5 0 -2 9 -16 20 -14 11 -20 20
-14 20 7 0 26 -16 43 -36 17 -19 35 -33 40 -30 5 3 14 -1 21 -9 8 -10 9 -15 2
-15 -14 0 6 -38 36 -68 23 -23 48 -31 36 -11 -3 6 0 15 7 20 10 6 11 9 2 9 -7
0 -13 6 -13 13 0 6 -7 25 -15 41 -8 15 -12 32 -9 37 3 5 0 9 -5 9 -6 0 -11 -5
-11 -12 0 -9 -3 -9 -11 -1 -8 8 -7 16 2 31 13 20 8 31 -33 70 -10 9 -18 24
-18 34 0 11 -8 18 -20 18 -11 0 -19 3 -19 8 4 23 -3 43 -13 41 -27 -3 -38 2
-38 16 0 8 -4 14 -8 13 -4 -2 -22 13 -40 32 -23 26 -31 31 -32 18 0 -10 -4
-18 -10 -18 -5 0 -10 5 -10 10 0 10 -17 19 -69 35 -17 5 -21 4 -16 -5 6 -9 3
-9 -13 -1 -31 17 -48 13 -78 -14z m-412 -110 c14 5 16 -6 14 -82 -1 -83 1 -93
29 -138 23 -38 39 -52 67 -60 46 -13 64 -30 23 -21 -16 3 -68 10 -115 15 -47
5 -111 20 -142 32 -65 24 -161 108 -152 132 13 36 145 111 179 103 15 -4 31 1
46 13 13 11 27 15 30 10 3 -5 13 -7 21 -4z m192 -51 c19 -19 20 -25 3 -48 -11
-15 -19 -17 -43 -9 -34 11 -42 34 -19 57 21 20 39 20 59 0z m-517 -101 c-3 -3
-11 -2 -17 2 -9 6 -9 10 1 16 14 8 27 -7 16 -18z m-47 -7 c0 -2 -11 -11 -25
-20 -14 -9 -25 -12 -25 -6 0 6 10 15 23 20 27 11 27 11 27 6z m1080 -40 c0 -2
-7 -6 -15 -10 -8 -3 -15 -1 -15 4 0 6 7 10 15 10 8 0 15 -2 15 -4z m-10 -190
c0 -11 -19 -15 -25 -6 -3 5 1 10 9 10 9 0 16 -2 16 -4z"/>
<path d="M9370 14904 c0 -8 5 -12 10 -9 6 4 8 11 5 16 -9 14 -15 11 -15 -7z"/>
<path d="M11945 14813 c25 -61 34 -370 15 -489 -31 -190 -98 -361 -196 -494
-63 -86 -224 -245 -299 -295 -132 -88 -290 -154 -455 -192 -101 -23 -355 -22
-460 1 -440 97 -755 354 -913 747 -69 172 -106 391 -107 632 0 49 -20 39 -21
-11 l-2 -37 -7 35 c-14 68 -10 -142 5 -249 50 -349 168 -598 385 -809 169
-165 420 -295 665 -343 113 -23 379 -18 490 9 391 93 707 358 863 722 17 41
37 93 45 115 9 29 17 39 30 37 10 -2 17 3 17 13 0 8 -7 15 -15 15 -8 0 -15 7
-15 15 0 23 37 18 55 -7 22 -32 31 -13 27 56 -3 48 -7 56 -23 56 -28 0 -34 25
-18 83 10 37 12 74 7 127 -4 41 -10 114 -14 163 -4 62 -10 87 -19 87 -7 0 -15
7 -19 15 -3 8 -10 15 -17 15 -7 0 -8 -7 -4 -17z"/>
<path d="M9196 14799 c-15 -9 -16 -13 -5 -20 18 -11 69 -12 69 -1 0 12 -22 32
-34 32 -6 0 -19 -5 -30 -11z"/>
<path d="M11671 14624 c0 -11 3 -14 6 -6 3 7 2 16 -1 19 -3 4 -6 -2 -5 -13z"/>
<path d="M11660 14491 c0 -6 5 -13 10 -16 6 -3 10 1 10 9 0 9 -4 16 -10 16 -5
0 -10 -4 -10 -9z"/>
<path d="M11350 14280 c20 -13 33 -13 25 0 -3 6 -14 10 -23 10 -15 0 -15 -2
-2 -10z"/>
<path d="M8625 13943 c13 -119 30 -136 70 -73 39 61 37 80 -10 107 -62 35 -68
32 -60 -34z"/>
<path d="M12720 13870 c0 -5 5 -10 10 -10 6 0 10 5 10 10 0 6 -4 10 -10 10 -5
0 -10 -4 -10 -10z"/>
<path d="M12700 13592 c0 -5 7 -16 16 -23 14 -12 16 -11 13 5 -4 20 -29 35
-29 18z"/>
<path d="M12748 13543 c7 -3 16 -2 19 1 4 3 -2 6 -13 5 -11 0 -14 -3 -6 -6z"/>
<path d="M12073 13215 c-3 -9 -3 -19 1 -22 8 -9 37 18 30 28 -8 14 -24 11 -31
-6z"/>
<path d="M11805 12870 c-48 -23 -112 -76 -103 -85 3 -4 25 -9 47 -12 31 -4 53
1 93 20 85 40 116 47 206 47 97 0 99 11 7 34 -84 22 -200 21 -250 -4z"/>
<path d="M12477 12510 c-9 -11 -17 -22 -17 -25 0 -10 19 -4 34 11 17 16 21 34
8 34 -4 0 -15 -9 -25 -20z"/>
<path d="M12430 12474 c0 -8 32 -33 43 -34 4 0 7 7 7 15 0 9 -6 12 -15 9 -8
-4 -15 -1 -15 5 0 6 -4 11 -10 11 -5 0 -10 -3 -10 -6z"/>
<path d="M13030 12430 c0 -5 7 -10 16 -10 8 0 12 5 9 10 -3 6 -10 10 -16 10
-5 0 -9 -4 -9 -10z"/>
<path d="M13136 12363 c-12 -12 -6 -33 9 -33 8 0 15 6 15 14 0 17 -14 28 -24
19z"/>
<path d="M11990 11129 c0 -5 5 -7 10 -4 6 3 10 8 10 11 0 2 -4 4 -10 4 -5 0
-10 -5 -10 -11z"/>
<path d="M11911 10974 c0 -11 3 -14 6 -6 3 7 2 16 -1 19 -3 4 -6 -2 -5 -13z"/>
<path d="M12706 10901 c-4 -5 -2 -20 3 -33 9 -21 10 -21 10 10 1 32 -3 39 -13
23z"/>
<path d="M13290 9829 c0 -5 5 -7 10 -4 6 3 10 8 10 11 0 2 -4 4 -10 4 -5 0
-10 -5 -10 -11z"/>
<path d="M13260 9750 c0 -5 5 -10 10 -10 6 0 10 5 10 10 0 6 -4 10 -10 10 -5
0 -10 -4 -10 -10z"/>
<path d="M13140 9730 c0 -5 5 -10 10 -10 6 0 10 5 10 10 0 6 -4 10 -10 10 -5
0 -10 -4 -10 -10z"/>
<path d="M13255 9699 c-10 -15 3 -25 16 -12 7 7 7 13 1 17 -6 3 -14 1 -17 -5z"/>
<path d="M12717 9673 c-4 -3 -7 -11 -7 -17 0 -6 5 -5 12 2 6 6 9 14 7 17 -3 3
-9 2 -12 -2z"/>
<path d="M12535 9640 c-3 -5 -1 -10 4 -10 6 0 11 5 11 10 0 6 -2 10 -4 10 -3
0 -8 -4 -11 -10z"/>
<path d="M13121 9604 c0 -11 3 -14 6 -6 3 7 2 16 -1 19 -3 4 -6 -2 -5 -13z"/>
<path d="M13230 9610 c0 -5 4 -10 9 -10 6 0 13 5 16 10 3 6 -1 10 -9 10 -9 0
-16 -4 -16 -10z"/>
<path d="M12507 9584 c-4 -4 -7 -14 -7 -23 0 -11 3 -12 11 -4 6 6 10 16 7 23
-2 6 -7 8 -11 4z"/>
<path d="M12890 9570 c0 -5 7 -10 16 -10 8 0 12 5 9 10 -3 6 -10 10 -16 10 -5
0 -9 -4 -9 -10z"/>
<path d="M12291 9364 c0 -11 3 -14 6 -6 3 7 2 16 -1 19 -3 4 -6 -2 -5 -13z"/>
<path d="M12250 9344 c0 -8 5 -12 10 -9 6 3 10 10 10 16 0 5 -4 9 -10 9 -5 0
-10 -7 -10 -16z"/>
<path d="M11972 9187 c-41 -28 -40 -34 3 -32 44 3 48 6 38 34 l-8 21 -33 -23z"/>
<path d="M14581 7244 c0 -11 3 -14 6 -6 3 7 2 16 -1 19 -3 4 -6 -2 -5 -13z"/>
<path d="M14596 7221 c-12 -12 -18 -12 -28 -3 -20 20 -55 14 -77 -15 -38 -51
-43 -55 -67 -50 -18 3 -24 0 -24 -14 0 -10 -11 -26 -25 -35 -14 -9 -25 -21
-25 -27 0 -6 -7 -19 -17 -29 -9 -11 -11 -18 -5 -18 7 0 12 -9 12 -21 0 -13 -4
-18 -12 -13 -10 6 -10 5 -1 -7 10 -12 10 -18 1 -27 -9 -9 -7 -12 8 -12 11 0
33 14 50 31 16 17 37 34 46 38 24 9 208 191 208 206 0 17 -26 15 -44 -4z"/>
<path d="M11380 7193 c0 -12 28 -38 34 -32 2 2 -5 13 -15 23 -11 11 -19 15
-19 9z"/>
<path d="M14326 7162 c-4 -13 -5 -26 -2 -29 10 -11 18 4 14 29 l-4 23 -8 -23z"/>
<path d="M11517 7072 c35 -34 64 -62 66 -62 2 0 25 -21 53 -47 45 -44 122
-112 299 -268 38 -33 76 -67 84 -76 9 -8 63 -54 121 -101 58 -47 142 -119 187
-160 72 -66 236 -183 348 -248 22 -13 51 -33 65 -46 17 -15 43 -25 80 -29 40
-4 50 -3 35 5 -11 5 -54 34 -95 65 -41 30 -99 71 -129 91 -30 20 -78 57 -107
80 -30 24 -80 65 -111 90 -79 63 -84 66 -170 137 -42 34 -99 80 -128 102 -29
22 -72 56 -96 76 -84 70 -177 145 -274 219 -53 41 -131 104 -173 139 -113 95
-124 102 -55 33z"/>
<path d="M14270 6915 c-13 -14 -21 -27 -18 -30 8 -8 38 6 38 17 0 5 4 7 9 4 4
-3 16 3 26 14 18 19 17 20 -7 20 -13 0 -35 -11 -48 -25z"/>
<path d="M14200 6840 c-26 -20 -24 -35 3 -24 14 5 31 33 25 40 -2 1 -14 -6
-28 -16z"/>
<path d="M13130 5578 c0 -14 30 -22 41 -11 7 7 2 12 -15 15 -14 3 -26 1 -26
-4z"/>
<path d="M20087 3260 c-15 -33 -27 -67 -27 -76 0 -8 -4 -23 -9 -33 -9 -17 -34
-170 -47 -286 -3 -33 -8 -71 -9 -85 -2 -14 -15 -59 -29 -100 -32 -95 -97 -325
-103 -367 -3 -18 -9 -33 -13 -33 -4 0 -10 -15 -13 -32 -2 -18 -18 -80 -36
-138 -17 -58 -47 -181 -66 -275 -19 -93 -44 -203 -55 -244 -26 -96 -26 -200
-1 -376 25 -175 32 -291 47 -790 4 -121 8 -227 10 -235 1 -8 3 -54 3 -102 l1
-88 220 0 c140 0 220 4 220 10 0 6 -4 10 -9 10 -5 0 -12 23 -16 50 -4 28 -10
50 -15 50 -8 0 -14 34 -24 127 -2 24 -8 48 -12 55 -4 6 -9 21 -10 32 -7 55
-24 129 -32 139 -22 30 -34 109 -27 184 6 70 5 76 -8 58 -14 -18 -15 -16 -21
35 -3 30 -12 120 -21 200 -15 150 -24 741 -11 790 4 14 9 68 11 120 5 104 11
182 26 305 5 44 11 100 13 125 3 25 14 131 25 235 22 217 37 393 33 415 -4 24
19 200 34 261 15 62 18 119 6 119 -4 0 -20 -27 -35 -60z"/>
<path d="M21658 2892 c-31 -32 -38 -49 -52 -122 -27 -147 -28 -159 -21 -177 5
-10 7 -27 6 -39 -1 -11 5 -27 13 -34 9 -7 16 -18 16 -25 0 -7 7 -16 16 -19 9
-4 14 -13 10 -21 -3 -8 -1 -15 3 -15 5 0 18 -3 28 -6 15 -6 16 -4 6 7 -13 13
-19 38 -6 26 10 -10 33 13 33 34 0 10 6 22 13 26 15 9 32 63 20 63 -5 0 -9 12
-10 28 -1 15 -4 41 -8 57 -3 17 -8 79 -12 138 -3 59 -9 110 -13 112 -4 2 -23
-13 -42 -33z"/>
<path d="M21955 2830 c-3 -5 -1 -10 4 -10 6 0 11 5 11 10 0 6 -2 10 -4 10 -3
0 -8 -4 -11 -10z"/>
<path d="M19079 2628 c0 -7 -2 -33 -5 -56 -4 -30 -2 -42 5 -37 6 3 11 1 11 -4
0 -6 -5 -11 -10 -11 -10 0 -9 -19 6 -102 3 -14 12 -29 20 -32 12 -5 13 7 7 72
-4 42 -8 101 -8 130 0 35 -4 52 -12 52 -7 0 -13 -6 -14 -12z"/>
<path d="M19143 1267 c-8 -17 -7 -30 2 -47 12 -23 13 -22 13 23 -1 26 -2 47
-3 47 -1 0 -7 -10 -12 -23z"/>
<path d="M19114 1116 c-7 -7 -11 -47 -11 -92 0 -43 -4 -92 -8 -108 -6 -21 -5
-27 3 -22 12 7 11 -1 -4 -39 -4 -11 -9 -45 -11 -75 -6 -99 -8 -110 -17 -110
-5 0 -6 -16 -3 -35 4 -24 -2 -56 -18 -100 -23 -65 -30 -107 -41 -270 -3 -50
-7 -106 -9 -125 -1 -19 -7 -55 -13 -80 -7 -25 -12 -48 -12 -52 0 -5 40 -8 89
-8 105 0 95 -14 112 149 13 127 6 825 -9 845 -5 6 -8 35 -6 64 2 40 -1 54 -14
61 -11 6 -21 5 -28 -3z"/>
</g>
</svg>
